<?xml version="1.0" encoding="UTF-8" standalone="no"?>
<svg
   role="img"
   viewBox="34.01 133.51 2560 650.00003"
   version="1.1"
   id="svg959"
   sodipodi:docname="banner_community_cncf_io.svg"
   width="2560"
   height="650"
   inkscape:version="1.1 (c4e8f9e, 2021-05-24)"
   inkscape:export-filename="/Users/aliok/Desktop/bitmap.png"
   inkscape:export-xdpi="96"
   inkscape:export-ydpi="96"
   xmlns:inkscape="http://www.inkscape.org/namespaces/inkscape"
   xmlns:sodipodi="http://sodipodi.sourceforge.net/DTD/sodipodi-0.dtd"
   xmlns="http://www.w3.org/2000/svg"
   xmlns:svg="http://www.w3.org/2000/svg">
  <sodipodi:namedview
     id="namedview961"
     pagecolor="#ffffff"
     bordercolor="#666666"
     borderopacity="1.0"
     inkscape:pageshadow="2"
     inkscape:pageopacity="0.0"
     inkscape:pagecheckerboard="0"
     showgrid="false"
     units="px"
     inkscape:zoom="0.29787335"
     inkscape:cx="1049.1036"
     inkscape:cy="-115.82104"
     inkscape:window-width="2560"
     inkscape:window-height="1311"
     inkscape:window-x="1792"
     inkscape:window-y="25"
     inkscape:window-maximized="1"
     inkscape:current-layer="svg959" />
  <defs
     id="defs875">
    <clipPath
       id="a">
      <path
         d="m 50,700 h 45 v 49.92969 H 50 Z m 0,0"
         id="path824" />
    </clipPath>
    <clipPath
       id="b">
      <path
         d="m 101,700 h 51 v 49.92969 h -51 z m 0,0"
         id="path827" />
    </clipPath>
    <clipPath
       id="c">
      <path
         d="m 162,701 h 52 v 48.92969 h -52 z m 0,0"
         id="path830" />
    </clipPath>
    <clipPath
       id="d">
      <path
         d="m 226,701 h 51 v 48.92969 h -51 z m 0,0"
         id="path833" />
    </clipPath>
    <clipPath
       id="e">
      <path
         d="m 289,701 h 44 v 48.92969 h -44 z m 0,0"
         id="path836" />
    </clipPath>
    <clipPath
       id="f">
      <path
         d="m 345,701 h 45 v 48.92969 h -45 z m 0,0"
         id="path839" />
    </clipPath>
    <clipPath
       id="g">
      <path
         d="m 402,701 h 12 v 48.92969 h -12 z m 0,0"
         id="path842" />
    </clipPath>
    <clipPath
       id="h">
      <path
         d="m 422,701 h 41 v 48.92969 h -41 z m 0,0"
         id="path845" />
    </clipPath>
    <clipPath
       id="i">
      <path
         d="m 468,701 h 49 v 48.92969 h -49 z m 0,0"
         id="path848" />
    </clipPath>
    <clipPath
       id="j">
      <path
         d="m 542,700 h 46 v 49.92969 h -46 z m 0,0"
         id="path851" />
    </clipPath>
    <clipPath
       id="k">
      <path
         d="m 599,701 h 41 v 48.92969 h -41 z m 0,0"
         id="path854" />
    </clipPath>
    <clipPath
       id="l">
      <path
         d="m 647,700 h 52 v 49.92969 h -52 z m 0,0"
         id="path857" />
    </clipPath>
    <clipPath
       id="m">
      <path
         d="m 707,701 h 45 v 48.92969 h -45 z m 0,0"
         id="path860" />
    </clipPath>
    <clipPath
       id="n">
      <path
         d="m 763,701 h 41 v 48.92969 h -41 z m 0,0"
         id="path863" />
    </clipPath>
    <clipPath
       id="o">
      <path
         d="m 810,700 h 40.15625 v 49.92969 H 810 Z m 0,0"
         id="path866" />
    </clipPath>
    <clipPath
       id="p">
      <path
         d="M 249,149.92969 H 386 V 280 H 249 Z m 0,0"
         id="path869" />
    </clipPath>
    <clipPath
       id="q">
      <path
         d="M 522,149.92969 H 652 V 287 H 522 Z m 0,0"
         id="path872" />
    </clipPath>
  </defs>
  <g
     id="g1475"
     transform="matrix(1.215726,0,0,1.215726,194.32076,-7.733073)">
    <g
       id="g1121"
       transform="matrix(1.2147712,0,0,1.2147712,-595.58731,-17.334848)">
      <path
         fill="#0086ff"
         fill-rule="evenodd"
         d="m 818.36055,326.6839 c -0.54409,0 -1.10114,-0.14064 -1.60822,-0.44231 -5.58159,-3.35709 -9.03306,-7.52292 -10.24709,-12.38089 -0.34978,-1.41391 -0.39975,-3.16278 -0.50709,-6.61611 -0.10363,-3.49774 -0.0537,-5.9036 -0.0278,-7.67838 0.0537,-2.75933 0.0537,-3.53661 -0.37753,-4.58779 -0.50893,-1.12889 -4.4971,-6.11457 -8.88686,-10.8541 -1.16592,-1.2566 -1.09004,-3.2257 0.16841,-4.39161 1.25845,-1.16592 3.22755,-1.09004 4.39531,0.16655 0.36088,0.38864 8.79803,9.53089 10.09534,12.75844 0.90683,2.26706 0.87906,3.96226 0.81429,7.0214 -0.0278,1.6952 -0.0759,4.04184 0.0111,7.38227 0.0759,2.62979 0.12954,4.52301 0.32386,5.28364 0.80504,3.20163 3.29417,6.07756 7.41189,8.55929 1.47867,0.88091 1.94319,2.79634 1.06413,4.26391 -0.54595,0.9716 -1.58231,1.51569 -2.62979,1.51569 z m 42.91306,-54.40565 c -0.7125,0 -1.41575,-0.23318 -1.99871,-0.7236 -5.0523,-4.24726 -9.96394,-5.15408 -13.20444,-5.76295 -1.10115,-0.20543 -2.06164,-0.37754 -2.86112,-0.65884 -3.39596,-1.17702 -5.8851,-2.33183 -13.7615,-10.73937 -1.17701,-1.25659 -1.11224,-3.22755 0.14065,-4.39346 1.25845,-1.17702 3.2294,-1.11225 4.39532,0.14065 7.24532,7.70614 8.92942,8.3002 11.2705,9.12004 0.36273,0.12955 1.12891,0.2702 1.94505,0.4164 3.6532,0.67364 9.75482,1.80254 16.07667,7.11208 1.30471,1.10114 1.47867,3.07025 0.37753,4.37681 -0.61997,0.74026 -1.50089,1.11225 -2.37995,1.11225 z m 0,0"
         id="path939"
         style="stroke-width:0.473769" />
      <g
         clip-path="url(#p)"
         id="g943"
         transform="matrix(0.47376851,0,0,0.47376851,659.82021,159.46953)">
        <path
           fill="#0086ff"
           fill-rule="evenodd"
           d="m 278.2461,279.34766 h -0.29688 c -1.7539,-0.082 -3.36328,-0.84375 -4.53516,-2.13282 l -22.64062,-24.875 c -2.4375,-2.67968 -2.2461,-6.83593 0.4336,-9.27343 2.67577,-2.4375 6.83593,-2.2461 9.27343,0.43359 l 18.21094,20.01172 90.79296,-82.58594 -18.20703,-20.01172 c -2.4375,-2.67969 -2.24609,-6.83594 0.4336,-9.27344 2.67578,-2.4375 6.83594,-2.24609 9.27344,0.4297 l 22.64062,24.8789 c 2.4414,2.67969 2.2461,6.83594 -0.42969,9.27344 l -100.52734,91.42578 c -1.21875,1.09375 -2.80469,1.69922 -4.42188,1.69922 z m 0,0"
           id="path941" />
      </g>
      <path
         fill="#93eaff"
         fill-rule="evenodd"
         d="m 795.50492,387.24855 c -0.50893,0 -1.01046,-0.11845 -1.49163,-0.37754 -1.49903,-0.83094 -2.06163,-2.70936 -1.23069,-4.22135 l 22.35965,-40.8903 c 1.12891,-2.1116 2.56502,-4.02518 4.28798,-5.68891 l 29.57722,-28.43167 c 1.2418,-1.19182 3.20164,-1.15481 4.39531,0.0925 1.19183,1.23993 1.15481,3.19978 -0.0925,4.39161 l -29.57722,28.43351 c -1.25845,1.20292 -2.30592,2.60017 -3.12021,4.13252 -0.0111,0.0111 -0.0111,0.0278 -0.0278,0.0388 l -22.37816,40.91805 c -0.53854,1.01971 -1.60082,1.60267 -2.70382,1.60267 z m 21.62494,23.3479 c -1.20478,0 -2.35959,-0.71065 -2.86297,-1.88767 -0.67364,-1.58231 0.0648,-3.40521 1.63043,-4.0807 8.79988,-3.75684 15.60291,-2.85002 21.59903,-2.04498 2.9259,0.38864 5.70188,0.76617 8.34648,0.47932 8.61666,-0.90682 24.08631,-5.55938 27.80243,-10.50248 0.68475,-0.90682 1.49904,-2.90368 0.9605,-4.6248 -0.42751,-1.36024 -1.73777,-2.40586 -3.88639,-3.098 -1.63043,-0.52744 -2.52799,-2.27632 -2.00981,-3.91229 0.52928,-1.63043 2.28001,-2.52615 3.91414,-2.00797 5.19295,1.673 7.1639,4.80431 7.90416,7.13429 1.2677,3.98817 -0.23318,8.02075 -1.90618,10.24339 -2.51504,3.3571 -7.63211,6.37367 -15.22351,8.99235 -5.50571,1.90433 -12.14032,3.45888 -16.89651,3.95116 -3.38115,0.36088 -6.64572,-0.0759 -9.81034,-0.50894 -5.45204,-0.7236 -11.10395,-1.47867 -18.33262,1.60823 -0.40344,0.16841 -0.81429,0.25909 -1.23069,0.25909 z m 21.06419,-60.78302 c -0.78838,0 -1.59156,-0.29611 -2.20228,-0.90682 -1.21958,-1.21959 -1.21958,-3.18313 0,-4.39347 l 36.85031,-36.83919 c 1.22143,-1.21959 3.18498,-1.21959 4.39531,0 1.21958,1.21958 1.21958,3.18498 0,4.39346 l -36.8503,36.8392 c -0.59962,0.61071 -1.3991,0.90682 -2.19304,0.90682 z m 14.82563,12.0737 c -0.78838,0 -1.59342,-0.29611 -2.20229,-0.90683 -1.21958,-1.21958 -1.21958,-3.18313 0,-4.39161 l 37.27782,-37.2667 c 1.21957,-1.21959 3.18498,-1.21959 4.39345,0 1.22144,1.21958 1.22144,3.18313 0,4.39346 L 855.2127,360.9803 c -0.59961,0.60517 -1.38799,0.90683 -2.19302,0.90683 z m 2.65384,21.28072 c -0.78653,0 -1.59156,-0.29611 -2.20228,-0.90683 -1.21958,-1.21958 -1.21958,-3.18313 0,-4.39346 l 41.62871,-41.6139 c 1.21958,-1.21959 3.18313,-1.21959 4.39346,0 1.21958,1.21958 1.21958,3.18313 0,4.39346 l -41.62686,41.6139 c -0.60887,0.61072 -1.40465,0.90683 -2.19302,0.90683 z m 0,0"
         id="path945"
         style="stroke-width:0.473769" />
      <path
         fill="#93eaff"
         fill-rule="evenodd"
         d="m 812.85484,429.44911 c -0.84205,0 -1.67299,-0.33497 -2.27816,-0.99936 -1.16592,-1.2566 -1.09004,-3.22755 0.16656,-4.39346 l 9.4217,-8.7166 -31.06885,-33.62091 -9.40875,8.7055 c -1.25844,1.16591 -3.22939,1.09004 -4.39531,-0.16841 -1.16591,-1.2566 -1.09004,-3.22755 0.16656,-4.39347 l 11.69986,-10.8245 c 0.61072,-0.55519 1.41391,-0.85315 2.23005,-0.83094 0.83094,0.0278 1.60822,0.38863 2.16341,0.9975 l 35.2791,38.18278 c 1.16592,1.2566 1.09004,3.22755 -0.16841,4.39346 l -11.69801,10.82636 c -0.59406,0.57 -1.34913,0.84019 -2.10975,0.84019 z m 0,0"
         id="path947"
         style="stroke-width:0.473769" />
      <path
         fill="#0086ff"
         fill-rule="evenodd"
         d="m 875.39599,274.15667 c -0.5441,0 -1.10115,-0.14065 -1.60822,-0.44416 -1.47868,-0.87906 -1.9432,-2.79449 -1.06414,-4.26206 3.35895,-5.58159 7.52663,-9.02936 12.38461,-10.2434 1.4139,-0.35162 3.16278,-0.39974 6.61796,-0.50893 3.49959,-0.10178 5.9073,-0.0537 7.68208,-0.0259 2.75933,0.0537 3.53661,0.0537 4.58963,-0.37939 1.12705,-0.50707 6.11643,-4.49525 10.85596,-8.8813 1.2566,-1.16592 3.22755,-1.09004 4.39346,0.16655 1.16592,1.2566 1.09004,3.22755 -0.16656,4.39347 -0.38863,0.36088 -9.53459,8.79617 -12.76213,10.09164 -2.26706,0.90682 -3.96226,0.88091 -7.02325,0.81429 -1.69521,-0.0259 -4.04369,-0.074 -7.38598,0.0111 -2.62979,0.0759 -4.52301,0.1314 -5.28548,0.32572 -3.20164,0.80318 -6.07942,3.29232 -8.56115,7.41003 -0.58295,1.00306 -1.60822,1.53235 -2.66679,1.53235 z m 54.41675,42.90011 c -0.71066,0 -1.41391,-0.23318 -1.99686,-0.7236 -1.30657,-1.10115 -1.47868,-3.07025 -0.37754,-4.37682 4.24911,-5.05044 5.15594,-9.96209 5.76665,-13.20074 0.20543,-1.10114 0.37754,-2.06163 0.65699,-2.86112 1.17887,-3.3941 2.33368,-5.88324 10.74307,-13.75594 1.25845,-1.17702 3.22939,-1.11224 4.39531,0.14065 1.17702,1.2566 1.11225,3.22755 -0.14065,4.39161 -7.70984,7.22682 -8.30205,8.92758 -9.12375,11.26866 -0.12954,0.36273 -0.27019,1.1289 -0.41454,1.94319 -0.67549,3.65505 -1.80439,9.75297 -7.11578,16.07297 -0.63293,0.72731 -1.51199,1.10114 -2.39105,1.10114 z m 0,0"
         id="path949"
         style="stroke-width:0.473769" />
      <g
         clip-path="url(#q)"
         id="g953"
         transform="matrix(0.47376851,0,0,0.47376851,659.82021,159.46953)">
        <path
           fill="#0086ff"
           fill-rule="evenodd"
           d="m 620.0586,286.17969 c -1.77735,0 -3.5547,-0.70313 -4.86329,-2.1289 L 523.7422,183.57811 c -1.17188,-1.28906 -1.77735,-2.98437 -1.69922,-4.72656 0.082,-1.74219 0.84375,-3.35937 2.13281,-4.53515 l 24.88281,-22.63282 c 2.6797,-2.4375 6.83985,-2.24218 9.27735,0.4336 2.4375,2.67578 2.2461,6.83594 -0.4336,9.27344 l -20.01953,18.1914 82.60938,90.76563 20.02343,-18.20313 c 2.67579,-2.4375 6.83594,-2.24219 9.27344,0.4336 2.4375,2.67578 2.2461,6.83593 -0.4336,9.27343 l -24.8828,22.63281 c -1.23438,1.1172 -2.81641,1.69922 -4.41407,1.69922 z m 0,0"
           id="path951" />
      </g>
      <path
         fill="#0086ff"
         fill-rule="evenodd"
         d="m 950.73258,371.73078 c -0.77727,0 -1.56565,-0.29611 -2.17637,-0.87906 -0.37754,-0.36273 -9.2755,-9.07748 -10.72642,-12.22915 -1.02711,-2.21339 -1.07523,-3.9123 -1.17702,-6.98439 -0.0537,-1.6952 -0.12954,-4.02518 -0.38863,-7.37117 -0.20543,-2.61683 -0.36274,-4.50635 -0.58481,-5.27253 -0.96049,-3.14612 -3.59953,-5.90545 -7.83754,-8.17065 -1.51754,-0.80504 -2.08384,-2.69456 -1.28436,-4.21025 0.79949,-1.51569 2.69271,-2.08384 4.21025,-1.28436 5.75555,3.07025 9.40319,7.05842 10.85596,11.84052 0.4275,1.39724 0.5552,3.13686 0.84205,6.57908 0.2702,3.48665 0.35163,5.9036 0.4164,7.66913 0.0907,2.75748 0.12955,3.53476 0.61072,4.57113 0.57185,1.10114 4.80431,5.88324 9.41985,10.38959 1.23068,1.20293 1.25659,3.17203 0.0537,4.39162 -0.62553,0.63662 -1.43056,0.96049 -2.23375,0.96049 z m -31.14473,31.3557 c -0.77727,0 -1.55455,-0.28685 -2.14861,-0.86981 -7.61731,-7.32861 -9.34027,-7.83569 -11.72577,-8.53709 -0.36088,-0.10178 -1.13816,-0.20542 -1.97095,-0.32386 -3.68096,-0.49043 -9.83625,-1.30656 -16.41719,-6.29224 -1.37134,-1.03637 -1.63043,-2.98881 -0.59406,-4.34905 1.03637,-1.37133 2.99066,-1.63042 4.3509,-0.59405 5.27437,3.98816 10.20823,4.65255 13.47464,5.0782 1.11225,0.14065 2.07274,0.27019 2.88703,0.51818 3.44592,1.00861 5.98872,2.03388 14.29078,10.02687 1.23069,1.19368 1.2677,3.16278 0.0759,4.39346 -0.59221,0.62552 -1.40836,0.94939 -2.22264,0.94939 z m 0,0"
         id="path955"
         style="stroke-width:0.473769" />
      <path
         fill="#0086ff"
         fill-rule="evenodd"
         d="m 923.72408,421.55235 c -0.78838,0 -1.58232,-0.29611 -2.19303,-0.90682 l -11.30938,-11.2298 c -0.58296,-0.58296 -0.91608,-1.37134 -0.91608,-2.19303 0,-0.83094 0.32387,-1.61748 0.90683,-2.20043 l 45.35778,-45.6687 c 1.20478,-1.21958 3.17573,-1.23068 4.39531,-0.0111 l 11.30938,11.23164 c 1.21958,1.20293 1.23068,3.17203 0.0111,4.39346 -1.20478,1.21958 -3.17573,1.23069 -4.39532,0.0111 l -9.10709,-9.04046 -40.96987,41.25302 9.10709,9.04046 c 1.22144,1.20293 1.23254,3.17388 0.0111,4.39347 -0.61627,0.61441 -1.41946,0.92718 -2.20784,0.92718 z m 0,0"
         id="path957"
         style="stroke-width:0.473769" />
    </g>
    <g
       id="g1109"
       transform="matrix(2.3127554,0,0,2.3127554,-960.57472,-775.1517)">
      <path
         fill="#8a8e94"
         d="m 739.55397,462.83498 c 0,-6.38292 5.55752,-11.74057 12.107,-11.74057 3.44038,0 6.5828,1.45646 8.79803,3.8031 l -3.53846,3.17573 c -1.2899,-1.52124 -3.20903,-2.54651 -5.25957,-2.54651 -3.83641,0 -7.07876,3.3719 -7.07876,7.30825 0,3.96781 3.24235,7.34157 7.07876,7.34157 2.08385,0 3.96966,-1.02527 5.25957,-2.54651 l 3.53846,3.17387 c -2.21523,2.31518 -5.35765,3.80311 -8.79802,3.80311 -6.54949,0 -12.10701,-5.38912 -12.10701,-11.77204 z m 41.71384,6.97698 v 4.39902 h -16.20992 v -22.71869 h 4.89684 v 18.31967 z m 3.24235,-6.97698 c 0,-6.38292 5.55753,-11.74057 12.10701,-11.74057 6.54762,0 12.04038,5.35765 12.04038,11.74057 0,6.38292 -5.49276,11.77204 -12.04038,11.77204 -6.54948,0 -12.10701,-5.38912 -12.10701,-11.77204 z m 19.15246,0 c 0,-3.93635 -3.24235,-7.30825 -7.04546,-7.30825 -3.83826,0 -7.08061,3.3719 -7.08061,7.30825 0,3.96781 3.24235,7.34157 7.08061,7.34157 3.80311,0 7.04546,-3.37376 7.04546,-7.34157 z m 9.59381,1.55455 v -12.89724 h 4.86168 v 12.69737 c 0,3.507 2.2504,5.98688 5.42614,5.98688 3.14241,0 5.39096,-2.47988 5.39096,-5.98688 v -12.69737 h 4.89684 v 12.89724 c 0,5.98503 -4.26761,10.21748 -10.28781,10.21748 -6.0535,0 -10.28781,-4.23245 -10.28781,-10.21748 z m 26.49773,-12.89723 h 8.17066 c 7.64136,0 13.06564,4.69512 13.06564,11.34268 0,6.64571 -5.42428,11.376 -13.06565,11.376 h -8.17066 z m 8.79988,18.28635 c 4.33239,0 7.40819,-2.87592 7.40819,-6.94367 0,-4.03444 -3.0758,-6.91221 -7.40819,-6.91221 h -3.90489 v 13.85588 z m 27.12509,-18.28635 h 4.895 l 10.94849,14.68312 V 451.4923 h 4.89684 v 22.71868 h -4.89684 l -10.94849,-14.68313 v 14.68313 h -4.89499 z m 42.00995,18.81564 h -9.85661 l -1.58786,3.90304 h -5.45759 l 9.26069,-22.71868 h 5.45944 l 9.2607,22.71868 h -5.49091 z m -1.55455,-3.8031 -3.37376,-8.30021 -3.37374,8.30021 z m 18.26044,-10.61353 h -7.07876 v -4.39901 h 19.05437 v 4.39901 h -7.11393 v 18.31967 h -4.86168 z m 16.54118,-4.39901 h 4.89499 v 22.71868 h -4.89499 z m 33.27669,0 -9.26069,22.71868 h -5.45945 l -9.26254,-22.71868 h 5.4909 l 6.51802,16.00449 6.48286,-16.00449 z m 9.29586,4.39901 v 4.53041 h 11.4463 v 4.39717 h -11.44631 v 4.99307 h 12.60481 v 4.39902 h -17.4998 v -22.71869 h 17.4998 v 4.39902 z m 0,0"
         id="path877"
         style="stroke-width:0.473769" />
      <g
         id="g16872"
         transform="matrix(0.47376851,0,0,0.47376851,659.82021,159.46953)">
        <g
           clip-path="url(#a)"
           id="g881">
          <path
             fill="#8a8e94"
             d="m 50.05078,725.08203 c 0,-13.47266 11.73047,-24.77734 25.55469,-24.77734 7.26172,0 13.89453,3.07031 18.57031,8.02343 l -7.46875,6.70313 c -2.72266,-3.21094 -6.77344,-5.375 -11.10156,-5.375 -8.09766,0 -14.9414,7.1211 -14.9414,15.42578 0,8.375 6.84374,15.4961 14.9414,15.4961 4.39844,0 8.3789,-2.16407 11.10156,-5.375 l 7.46875,6.69921 c -4.67578,4.88672 -11.3086,8.02735 -18.57031,8.02735 -13.82422,0 -25.55469,-11.375 -25.55469,-24.84766 z m 0,0"
             id="path879" />
        </g>
        <g
           clip-path="url(#b)"
           id="g885">
          <path
             fill="#8a8e94"
             d="m 101.01953,725.08203 c 0,-13.47266 11.73047,-24.77734 25.55469,-24.77734 13.82422,0 25.41797,11.30468 25.41797,24.77734 0,13.47266 -11.59375,24.84766 -25.41797,24.84766 -13.82422,0 -25.55469,-11.375 -25.55469,-24.84766 z m 40.42578,0 c 0,-8.30469 -6.83984,-15.42578 -14.8711,-15.42578 -8.09765,0 -14.9414,7.1211 -14.9414,15.42578 0,8.375 6.84375,15.4961 14.9414,15.4961 8.03126,0 14.8711,-7.1211 14.8711,-15.4961 z m 0,0"
             id="path883" />
        </g>
        <g
           clip-path="url(#c)"
           id="g889">
          <path
             fill="#8a8e94"
             d="m 162.7461,701.14063 h 10.33202 l 14.80079,27.08203 14.87109,-27.08204 h 10.26563 v 47.95313 H 202.75 v -29.875 l -14.8711,27.08203 -14.80077,-27.08203 v 29.875 h -10.33204 z m 0,0"
             id="path887" />
        </g>
        <g
           clip-path="url(#d)"
           id="g893">
          <path
             fill="#8a8e94"
             d="m 226.63672,701.14063 h 10.33203 l 14.80078,27.08203 14.8711,-27.08204 h 10.26562 v 47.95313 h -10.26563 v -29.875 l -14.87109,27.08203 -14.80078,-27.08203 v 29.875 h -10.33203 z m 0,0"
             id="path891" />
        </g>
        <g
           clip-path="url(#e)"
           id="g897">
          <path
             fill="#8a8e94"
             d="m 289.47656,728.36328 v -27.22266 h 10.26172 v 26.8047 c 0,7.39843 4.7461,12.6328 11.44922,12.6328 6.63672,0 11.38281,-5.23437 11.38281,-12.6328 v -26.8047 h 10.33203 v 27.22266 c 0,12.63281 -9.0078,21.5664 -21.71484,21.5664 -12.77734,0 -21.71094,-8.93359 -21.71094,-21.5664 z m 0,0"
             id="path895" />
        </g>
        <g
           clip-path="url(#f)"
           id="g901">
          <path
             fill="#8a8e94"
             d="m 345.40625,701.14063 h 10.33203 l 23.10938,30.99218 v -30.99218 h 10.33203 v 47.95312 h -10.33203 l -23.10938,-30.99219 v 30.99219 h -10.33203 z m 0,0"
             id="path899" />
        </g>
        <g
           clip-path="url(#g)"
           id="g905">
          <path
             fill="#8a8e94"
             d="m 402.73047,701.14063 h 10.33203 v 47.95312 h -10.33203 z m 0,0"
             id="path903" />
        </g>
        <g
           clip-path="url(#h)"
           id="g909">
          <path
             fill="#8a8e94"
             d="m 437.71094,710.42578 h -14.9414 v -9.28516 h 40.21483 v 9.28516 h -15.01171 v 38.66797 h -10.26172 z m 0,0"
             id="path907" />
        </g>
        <g
           clip-path="url(#i)"
           id="g913">
          <path
             fill="#8a8e94"
             d="m 486.9336,731.78516 -18.78126,-30.64454 h 12.00782 l 11.9414,21.01172 12.42578,-21.01171 h 11.52344 l -18.71484,30.64453 v 17.30859 h -10.40235 z m 0,0"
             id="path911" />
        </g>
        <g
           clip-path="url(#j)"
           id="g917">
          <path
             fill="#8a8e94"
             d="m 566.60156,722.15234 h 21.15625 v 19.75 c -4.7461,5.02735 -12.21875,8.02735 -19.33984,8.02735 -13.96484,0 -25.76563,-11.375 -25.76563,-24.84766 0,-13.47266 11.80079,-24.77734 25.76563,-24.77734 7.1211,0 14.59375,3 19.33984,8.02343 l -7.47265,6.70313 c -2.86329,-3.28125 -7.46875,-5.375 -11.8672,-5.375 -8.24218,0 -15.15233,7.1211 -15.15233,15.42578 0,8.375 6.91015,15.4961 15.15234,15.4961 3.21094,0 6.63281,-1.1172 9.28516,-3.07032 v -7.33203 h -11.10157 z m 0,0"
             id="path915" />
        </g>
        <g
           clip-path="url(#k)"
           id="g921">
          <path
             fill="#8a8e94"
             d="m 627.14063,732.6914 11.51953,16.40235 h -11.73047 l -10.96094,-15.5664 h -6.21484 v 15.5664 h -10.33204 v -47.95313 h 21.57422 c 10.47266,0 18.08204,6.69922 18.08204,16.19532 0,7.53515 -4.7461,13.26172 -11.9375,15.35547 z m -17.38672,-8.58593 h 10.1953 c 5.09376,0 8.58595,-2.65234 8.58595,-6.76953 0,-4.1211 -3.4922,-6.77344 -8.58594,-6.77344 H 609.7539 Z m 0,0"
             id="path919" />
        </g>
        <g
           clip-path="url(#l)"
           id="g925">
          <path
             fill="#8a8e94"
             d="m 647.10938,725.08203 c 0,-13.47266 11.73046,-24.77734 25.55468,-24.77734 13.82422,0 25.41407,11.30468 25.41407,24.77734 0,13.47266 -11.58985,24.84766 -25.41407,24.84766 -13.82422,0 -25.55468,-11.375 -25.55468,-24.84766 z m 40.42578,0 c 0,-8.30469 -6.83985,-15.42578 -14.8711,-15.42578 -8.09765,0 -14.9414,7.1211 -14.9414,15.42578 0,8.375 6.84375,15.4961 14.9414,15.4961 8.03125,0 14.8711,-7.1211 14.8711,-15.4961 z m 0,0"
             id="path923" />
        </g>
        <g
           clip-path="url(#m)"
           id="g929">
          <path
             fill="#8a8e94"
             d="m 707.78516,728.36328 v -27.22266 h 10.26562 v 26.8047 c 0,7.39843 4.7461,12.6328 11.44922,12.6328 6.63281,0 11.3789,-5.23437 11.3789,-12.6328 v -26.8047 h 10.33594 v 27.22266 c 0,12.63281 -9.0078,21.5664 -21.71484,21.5664 -12.77734,0 -21.71484,-8.93359 -21.71484,-21.5664 z m 0,0"
             id="path927" />
        </g>
        <g
           clip-path="url(#n)"
           id="g933">
          <path
             fill="#8a8e94"
             d="m 763.71484,701.14063 h 21.57813 c 10.46875,0 18.08203,6.69921 18.08203,16.1953 0,9.4922 -7.61328,16.19141 -18.08203,16.19141 h -11.24219 v 15.56641 h -10.33594 z m 20.52735,22.96484 c 5.09765,0 8.58984,-2.65234 8.58984,-6.76953 0,-4.1211 -3.49219,-6.77344 -8.58984,-6.77344 h -10.1914 v 13.54297 z m 0,0"
             id="path931" />
        </g>
        <g
           clip-path="url(#o)"
           id="g937">
          <path
             fill="#8a8e94"
             d="m 810.07813,741.97266 5.86328,-7.04688 c 4.53906,3.90625 9.70703,6.28125 15.78125,6.28125 5.23828,0 7.89062,-2.375 7.89062,-5.375 0,-3.42187 -2.79687,-4.46875 -10.125,-6.14453 -10.125,-2.30078 -17.38672,-5.16406 -17.38672,-14.44531 0,-8.86719 7.26172,-14.9375 17.80469,-14.9375 7.82031,0 13.82422,2.4414 18.78125,6.6289 l -5.375,7.46875 c -4.33203,-3.48828 -9.14844,-5.375 -13.75781,-5.375 -4.32813,0 -7.05078,2.3047 -7.05078,5.16407 0,3.49218 2.93359,4.60937 10.33593,6.28515 10.33204,2.30078 17.17579,5.375 17.17579,14.23828 0,9.14454 -6.98438,15.21485 -18.64454,15.21485 -8.375,0 -15.71093,-2.78907 -21.29296,-7.95703 z m 0,0"
             id="path935" />
        </g>
      </g>
      <text
         xml:space="preserve"
         style="font-style:normal;font-variant:normal;font-weight:900;font-stretch:normal;font-size:30.3212px;line-height:1.25;font-family:'Red Hat Display';-inkscape-font-specification:'Red Hat Display Heavy';letter-spacing:2.36884px;fill:#0086ff;fill-opacity:1;stroke:none;stroke-width:0.473769"
         x="788.06781"
         y="550.57751"
         id="text3696"><tspan
           sodipodi:role="line"
           id="tspan3694"
           x="788.06781"
           y="550.57751"
           style="font-style:normal;font-variant:normal;font-weight:900;font-stretch:normal;font-size:30.3212px;font-family:'Red Hat Display';-inkscape-font-specification:'Red Hat Display Heavy';fill:#0086ff;fill-opacity:1;stroke-width:0.473769">ISTANBUL</tspan></text>
    </g>
  </g>
</svg>
