<?xml version="1.0" encoding="UTF-8" standalone="no"?>
<svg
   role="img"
   viewBox="34.01 133.51 800.00002 800.00003"
   version="1.1"
   id="svg959"
   sodipodi:docname="logo_square.svg"
   width="800"
   height="800"
   inkscape:version="1.1 (c4e8f9e, 2021-05-24)"
   inkscape:export-filename="/Users/aliok/Desktop/bitmap.png"
   inkscape:export-xdpi="96"
   inkscape:export-ydpi="96"
   xmlns:inkscape="http://www.inkscape.org/namespaces/inkscape"
   xmlns:sodipodi="http://sodipodi.sourceforge.net/DTD/sodipodi-0.dtd"
   xmlns="http://www.w3.org/2000/svg"
   xmlns:svg="http://www.w3.org/2000/svg">
  <sodipodi:namedview
     id="namedview961"
     pagecolor="#ffffff"
     bordercolor="#666666"
     borderopacity="1.0"
     inkscape:pageshadow="2"
     inkscape:pageopacity="0.0"
     inkscape:pagecheckerboard="0"
     showgrid="false"
     units="px"
     inkscape:zoom="0.5957467"
     inkscape:cx="470.83769"
     inkscape:cy="386.9094"
     inkscape:window-width="2560"
     inkscape:window-height="1311"
     inkscape:window-x="1792"
     inkscape:window-y="25"
     inkscape:window-maximized="1"
     inkscape:current-layer="svg959" />
  <defs
     id="defs875">
    <clipPath
       id="a">
      <path
         d="m 50,700 h 45 v 49.92969 H 50 Z m 0,0"
         id="path824" />
    </clipPath>
    <clipPath
       id="b">
      <path
         d="m 101,700 h 51 v 49.92969 h -51 z m 0,0"
         id="path827" />
    </clipPath>
    <clipPath
       id="c">
      <path
         d="m 162,701 h 52 v 48.92969 h -52 z m 0,0"
         id="path830" />
    </clipPath>
    <clipPath
       id="d">
      <path
         d="m 226,701 h 51 v 48.92969 h -51 z m 0,0"
         id="path833" />
    </clipPath>
    <clipPath
       id="e">
      <path
         d="m 289,701 h 44 v 48.92969 h -44 z m 0,0"
         id="path836" />
    </clipPath>
    <clipPath
       id="f">
      <path
         d="m 345,701 h 45 v 48.92969 h -45 z m 0,0"
         id="path839" />
    </clipPath>
    <clipPath
       id="g">
      <path
         d="m 402,701 h 12 v 48.92969 h -12 z m 0,0"
         id="path842" />
    </clipPath>
    <clipPath
       id="h">
      <path
         d="m 422,701 h 41 v 48.92969 h -41 z m 0,0"
         id="path845" />
    </clipPath>
    <clipPath
       id="i">
      <path
         d="m 468,701 h 49 v 48.92969 h -49 z m 0,0"
         id="path848" />
    </clipPath>
    <clipPath
       id="j">
      <path
         d="m 542,700 h 46 v 49.92969 h -46 z m 0,0"
         id="path851" />
    </clipPath>
    <clipPath
       id="k">
      <path
         d="m 599,701 h 41 v 48.92969 h -41 z m 0,0"
         id="path854" />
    </clipPath>
    <clipPath
       id="l">
      <path
         d="m 647,700 h 52 v 49.92969 h -52 z m 0,0"
         id="path857" />
    </clipPath>
    <clipPath
       id="m">
      <path
         d="m 707,701 h 45 v 48.92969 h -45 z m 0,0"
         id="path860" />
    </clipPath>
    <clipPath
       id="n">
      <path
         d="m 763,701 h 41 v 48.92969 h -41 z m 0,0"
         id="path863" />
    </clipPath>
    <clipPath
       id="o">
      <path
         d="m 810,700 h 40.15625 v 49.92969 H 810 Z m 0,0"
         id="path866" />
    </clipPath>
    <clipPath
       id="p">
      <path
         d="M 249,149.92969 H 386 V 280 H 249 Z m 0,0"
         id="path869" />
    </clipPath>
    <clipPath
       id="q">
      <path
         d="M 522,149.92969 H 652 V 287 H 522 Z m 0,0"
         id="path872" />
    </clipPath>
  </defs>
  <g
     id="g1388"
     transform="matrix(0.94334592,0,0,0.94334592,9.4730122,73.111708)">
    <path
       fill="#8a8e94"
       d="m 168.29688,640.32422 c 0,-13.47266 11.73046,-24.78125 25.55468,-24.78125 7.26172,0 13.89453,3.07422 18.57031,8.02734 l -7.46875,6.70313 c -2.72265,-3.21094 -6.77343,-5.375 -11.10156,-5.375 -8.09765,0 -14.9414,7.11718 -14.9414,15.42578 0,8.375 6.84375,15.4961 14.9414,15.4961 4.39844,0 8.3789,-2.16407 11.10156,-5.375 l 7.46875,6.69921 c -4.67578,4.88672 -11.30859,8.02734 -18.5703,8.02734 -13.82423,0 -25.5547,-11.375 -25.5547,-24.84765 z m 88.04687,14.72656 v 9.28516 H 222.12891 V 616.3828 h 10.33593 v 38.66797 z m 6.84375,-14.72656 c 0,-13.47266 11.73047,-24.78125 25.55469,-24.78125 13.82031,0 25.41406,11.3086 25.41406,24.78125 0,13.47266 -11.59375,24.84766 -25.41406,24.84766 -13.82422,0 -25.55469,-11.375 -25.55469,-24.84766 z m 40.42578,0 c 0,-8.3086 -6.84375,-15.42578 -14.8711,-15.42578 -8.10156,0 -14.9453,7.11718 -14.9453,15.42578 0,8.375 6.84375,15.4961 14.9453,15.4961 8.02735,0 14.8711,-7.1211 14.8711,-15.4961 z m 20.25,3.28125 V 616.3828 H 334.125 v 26.80078 c 0,7.40235 4.75,12.63672 11.45313,12.63672 6.6328,0 11.3789,-5.23437 11.3789,-12.63672 V 616.3828 h 10.33594 v 27.22266 c 0,12.63281 -9.00781,21.5664 -21.71485,21.5664 -12.77734,0 -21.71484,-8.93359 -21.71484,-21.5664 z m 55.92969,-27.22266 h 17.2461 c 16.1289,0 27.57812,9.91016 27.57812,23.9414 0,14.02735 -11.44922,24.01173 -27.57813,24.01173 h -17.2461 z m 18.57422,38.59766 c 9.14453,0 15.63672,-6.07031 15.63672,-14.65625 0,-8.51563 -6.4922,-14.58984 -15.63672,-14.58984 H 390.125 v 29.24609 z m 57.2539,-38.59766 h 10.33204 L 489.0625,647.375 v -30.99219 h 10.33594 v 47.95313 H 489.0625 l -23.10938,-30.99219 v 30.99219 H 455.6211 Z m 88.67188,39.71485 h -20.80469 l -3.35156,8.23828 h -11.51953 l 19.54687,-47.95313 h 11.52344 l 19.54688,47.95313 h -11.58985 z m -3.28125,-8.02735 -7.1211,-17.51953 -7.12109,17.51953 z m 38.54297,-22.40234 h -14.9414 v -9.28516 h 40.21874 v 9.28516 h -15.01562 v 38.66797 h -10.26172 z m 34.91406,-9.28516 h 10.33203 v 47.95313 h -10.33203 z m 70.23828,0 -19.54687,47.95313 h -11.52344 l -19.55078,-47.95313 h 11.58984 l 13.75781,33.78125 13.6836,-33.78125 z m 19.6211,9.28516 v 9.5625 h 24.16015 v 9.28125 h -24.16016 v 10.53906 h 26.60547 v 9.28516 h -36.9375 V 616.3828 h 36.9375 v 9.28516 z m 0,0"
       id="path877" />
    <g
       id="g16872">
      <g
         clip-path="url(#a)"
         id="g881">
        <path
           fill="#8a8e94"
           d="m 50.05078,725.08203 c 0,-13.47266 11.73047,-24.77734 25.55469,-24.77734 7.26172,0 13.89453,3.07031 18.57031,8.02343 l -7.46875,6.70313 c -2.72266,-3.21094 -6.77344,-5.375 -11.10156,-5.375 -8.09766,0 -14.9414,7.1211 -14.9414,15.42578 0,8.375 6.84374,15.4961 14.9414,15.4961 4.39844,0 8.3789,-2.16407 11.10156,-5.375 l 7.46875,6.69921 c -4.67578,4.88672 -11.3086,8.02735 -18.57031,8.02735 -13.82422,0 -25.55469,-11.375 -25.55469,-24.84766 z m 0,0"
           id="path879" />
      </g>
      <g
         clip-path="url(#b)"
         id="g885">
        <path
           fill="#8a8e94"
           d="m 101.01953,725.08203 c 0,-13.47266 11.73047,-24.77734 25.55469,-24.77734 13.82422,0 25.41797,11.30468 25.41797,24.77734 0,13.47266 -11.59375,24.84766 -25.41797,24.84766 -13.82422,0 -25.55469,-11.375 -25.55469,-24.84766 z m 40.42578,0 c 0,-8.30469 -6.83984,-15.42578 -14.8711,-15.42578 -8.09765,0 -14.9414,7.1211 -14.9414,15.42578 0,8.375 6.84375,15.4961 14.9414,15.4961 8.03126,0 14.8711,-7.1211 14.8711,-15.4961 z m 0,0"
           id="path883" />
      </g>
      <g
         clip-path="url(#c)"
         id="g889">
        <path
           fill="#8a8e94"
           d="m 162.7461,701.14063 h 10.33202 l 14.80079,27.08203 14.87109,-27.08204 h 10.26563 v 47.95313 H 202.75 v -29.875 l -14.8711,27.08203 -14.80077,-27.08203 v 29.875 h -10.33204 z m 0,0"
           id="path887" />
      </g>
      <g
         clip-path="url(#d)"
         id="g893">
        <path
           fill="#8a8e94"
           d="m 226.63672,701.14063 h 10.33203 l 14.80078,27.08203 14.8711,-27.08204 h 10.26562 v 47.95313 h -10.26563 v -29.875 l -14.87109,27.08203 -14.80078,-27.08203 v 29.875 h -10.33203 z m 0,0"
           id="path891" />
      </g>
      <g
         clip-path="url(#e)"
         id="g897">
        <path
           fill="#8a8e94"
           d="m 289.47656,728.36328 v -27.22266 h 10.26172 v 26.8047 c 0,7.39843 4.7461,12.6328 11.44922,12.6328 6.63672,0 11.38281,-5.23437 11.38281,-12.6328 v -26.8047 h 10.33203 v 27.22266 c 0,12.63281 -9.0078,21.5664 -21.71484,21.5664 -12.77734,0 -21.71094,-8.93359 -21.71094,-21.5664 z m 0,0"
           id="path895" />
      </g>
      <g
         clip-path="url(#f)"
         id="g901">
        <path
           fill="#8a8e94"
           d="m 345.40625,701.14063 h 10.33203 l 23.10938,30.99218 v -30.99218 h 10.33203 v 47.95312 h -10.33203 l -23.10938,-30.99219 v 30.99219 h -10.33203 z m 0,0"
           id="path899" />
      </g>
      <g
         clip-path="url(#g)"
         id="g905">
        <path
           fill="#8a8e94"
           d="m 402.73047,701.14063 h 10.33203 v 47.95312 h -10.33203 z m 0,0"
           id="path903" />
      </g>
      <g
         clip-path="url(#h)"
         id="g909">
        <path
           fill="#8a8e94"
           d="m 437.71094,710.42578 h -14.9414 v -9.28516 h 40.21483 v 9.28516 h -15.01171 v 38.66797 h -10.26172 z m 0,0"
           id="path907" />
      </g>
      <g
         clip-path="url(#i)"
         id="g913">
        <path
           fill="#8a8e94"
           d="m 486.9336,731.78516 -18.78126,-30.64454 h 12.00782 l 11.9414,21.01172 12.42578,-21.01171 h 11.52344 l -18.71484,30.64453 v 17.30859 h -10.40235 z m 0,0"
           id="path911" />
      </g>
      <g
         clip-path="url(#j)"
         id="g917">
        <path
           fill="#8a8e94"
           d="m 566.60156,722.15234 h 21.15625 v 19.75 c -4.7461,5.02735 -12.21875,8.02735 -19.33984,8.02735 -13.96484,0 -25.76563,-11.375 -25.76563,-24.84766 0,-13.47266 11.80079,-24.77734 25.76563,-24.77734 7.1211,0 14.59375,3 19.33984,8.02343 l -7.47265,6.70313 c -2.86329,-3.28125 -7.46875,-5.375 -11.8672,-5.375 -8.24218,0 -15.15233,7.1211 -15.15233,15.42578 0,8.375 6.91015,15.4961 15.15234,15.4961 3.21094,0 6.63281,-1.1172 9.28516,-3.07032 v -7.33203 h -11.10157 z m 0,0"
           id="path915" />
      </g>
      <g
         clip-path="url(#k)"
         id="g921">
        <path
           fill="#8a8e94"
           d="m 627.14063,732.6914 11.51953,16.40235 h -11.73047 l -10.96094,-15.5664 h -6.21484 v 15.5664 h -10.33204 v -47.95313 h 21.57422 c 10.47266,0 18.08204,6.69922 18.08204,16.19532 0,7.53515 -4.7461,13.26172 -11.9375,15.35547 z m -17.38672,-8.58593 h 10.1953 c 5.09376,0 8.58595,-2.65234 8.58595,-6.76953 0,-4.1211 -3.4922,-6.77344 -8.58594,-6.77344 H 609.7539 Z m 0,0"
           id="path919" />
      </g>
      <g
         clip-path="url(#l)"
         id="g925">
        <path
           fill="#8a8e94"
           d="m 647.10938,725.08203 c 0,-13.47266 11.73046,-24.77734 25.55468,-24.77734 13.82422,0 25.41407,11.30468 25.41407,24.77734 0,13.47266 -11.58985,24.84766 -25.41407,24.84766 -13.82422,0 -25.55468,-11.375 -25.55468,-24.84766 z m 40.42578,0 c 0,-8.30469 -6.83985,-15.42578 -14.8711,-15.42578 -8.09765,0 -14.9414,7.1211 -14.9414,15.42578 0,8.375 6.84375,15.4961 14.9414,15.4961 8.03125,0 14.8711,-7.1211 14.8711,-15.4961 z m 0,0"
           id="path923" />
      </g>
      <g
         clip-path="url(#m)"
         id="g929">
        <path
           fill="#8a8e94"
           d="m 707.78516,728.36328 v -27.22266 h 10.26562 v 26.8047 c 0,7.39843 4.7461,12.6328 11.44922,12.6328 6.63281,0 11.3789,-5.23437 11.3789,-12.6328 v -26.8047 h 10.33594 v 27.22266 c 0,12.63281 -9.0078,21.5664 -21.71484,21.5664 -12.77734,0 -21.71484,-8.93359 -21.71484,-21.5664 z m 0,0"
           id="path927" />
      </g>
      <g
         clip-path="url(#n)"
         id="g933">
        <path
           fill="#8a8e94"
           d="m 763.71484,701.14063 h 21.57813 c 10.46875,0 18.08203,6.69921 18.08203,16.1953 0,9.4922 -7.61328,16.19141 -18.08203,16.19141 h -11.24219 v 15.56641 h -10.33594 z m 20.52735,22.96484 c 5.09765,0 8.58984,-2.65234 8.58984,-6.76953 0,-4.1211 -3.49219,-6.77344 -8.58984,-6.77344 h -10.1914 v 13.54297 z m 0,0"
           id="path931" />
      </g>
      <g
         clip-path="url(#o)"
         id="g937">
        <path
           fill="#8a8e94"
           d="m 810.07813,741.97266 5.86328,-7.04688 c 4.53906,3.90625 9.70703,6.28125 15.78125,6.28125 5.23828,0 7.89062,-2.375 7.89062,-5.375 0,-3.42187 -2.79687,-4.46875 -10.125,-6.14453 -10.125,-2.30078 -17.38672,-5.16406 -17.38672,-14.44531 0,-8.86719 7.26172,-14.9375 17.80469,-14.9375 7.82031,0 13.82422,2.4414 18.78125,6.6289 l -5.375,7.46875 c -4.33203,-3.48828 -9.14844,-5.375 -13.75781,-5.375 -4.32813,0 -7.05078,2.3047 -7.05078,5.16407 0,3.49218 2.93359,4.60937 10.33593,6.28515 10.33204,2.30078 17.17579,5.375 17.17579,14.23828 0,9.14454 -6.98438,15.21485 -18.64454,15.21485 -8.375,0 -15.71093,-2.78907 -21.29296,-7.95703 z m 0,0"
           id="path935" />
      </g>
    </g>
    <path
       fill="#0086ff"
       fill-rule="evenodd"
       d="m 334.63672,352.94531 c -1.14844,0 -2.32422,-0.29687 -3.39453,-0.9336 -11.78125,-7.08593 -19.0664,-15.8789 -21.6289,-26.1328 -0.73829,-2.98438 -0.84376,-6.67579 -1.07032,-13.96485 -0.21875,-7.38281 -0.11328,-12.46094 -0.0586,-16.20703 0.11329,-5.82422 0.11329,-7.46484 -0.79687,-9.6836 -1.07422,-2.3828 -9.49219,-12.90624 -18.75781,-22.91015 -2.46094,-2.65234 -2.30078,-6.8086 0.35547,-9.26953 2.65625,-2.46094 6.8125,-2.30078 9.27734,0.35156 0.76172,0.82031 18.57031,20.11719 21.3086,26.92969 1.91406,4.78516 1.85546,8.36328 1.71874,14.82031 -0.0586,3.57813 -0.16015,8.53125 0.0234,15.58203 0.16016,5.55079 0.27344,9.54688 0.6836,11.15235 1.69921,6.75781 6.95312,12.82812 15.64453,18.0664 3.12109,1.85938 4.10156,5.90235 2.24609,9 -1.15234,2.05079 -3.33984,3.19922 -5.55078,3.19922 z m 90.57812,-114.83594 c -1.5039,0 -2.98828,-0.49218 -4.21875,-1.52734 -10.66406,-8.96484 -21.03125,-10.8789 -27.87109,-12.16406 -2.32422,-0.4336 -4.35156,-0.79688 -6.03906,-1.39063 -7.16797,-2.48437 -12.42188,-4.92187 -29.04688,-22.66797 -2.48437,-2.65234 -2.34765,-6.8125 0.29688,-9.27343 2.65625,-2.48438 6.8164,-2.34766 9.27734,0.29687 15.29297,16.26563 18.84766,17.51953 23.78906,19.25 0.76563,0.27344 2.38282,0.57031 4.10547,0.8789 7.71094,1.42188 20.58985,3.8047 33.9336,15.01173 2.7539,2.32422 3.12109,6.48047 0.79687,9.23828 -1.3086,1.5625 -3.16797,2.34766 -5.02344,2.34766 z m 0,0"
       id="path939" />
    <g
       clip-path="url(#p)"
       id="g943">
      <path
         fill="#0086ff"
         fill-rule="evenodd"
         d="m 278.2461,279.34766 h -0.29688 c -1.7539,-0.082 -3.36328,-0.84375 -4.53516,-2.13282 l -22.64062,-24.875 c -2.4375,-2.67968 -2.2461,-6.83593 0.4336,-9.27343 2.67577,-2.4375 6.83593,-2.2461 9.27343,0.43359 l 18.21094,20.01172 90.79296,-82.58594 -18.20703,-20.01172 c -2.4375,-2.67969 -2.24609,-6.83594 0.4336,-9.27344 2.67578,-2.4375 6.83594,-2.24609 9.27344,0.4297 l 22.64062,24.8789 c 2.4414,2.67969 2.2461,6.83594 -0.42969,9.27344 l -100.52734,91.42578 c -1.21875,1.09375 -2.80469,1.69922 -4.42188,1.69922 z m 0,0"
         id="path941" />
    </g>
    <path
       fill="#93eaff"
       fill-rule="evenodd"
       d="m 286.39453,480.78125 c -1.07422,0 -2.13281,-0.25 -3.14844,-0.79688 -3.16406,-1.7539 -4.35156,-5.71875 -2.59765,-8.91015 l 47.19531,-86.3086 c 2.38281,-4.45703 5.41406,-8.49609 9.05078,-12.0078 l 62.42969,-60.01173 c 2.6211,-2.51562 6.75781,-2.4375 9.27734,0.19532 2.51563,2.61718 2.4375,6.7539 -0.19531,9.26953 l -62.42969,60.01562 c -2.65625,2.53906 -4.86719,5.48828 -6.58594,8.72266 -0.0234,0.0234 -0.0234,0.0586 -0.0586,0.082 l -47.23437,86.36719 c -1.13672,2.15234 -3.37891,3.38281 -5.70704,3.38281 z m 45.64453,49.28125 c -2.54297,0 -4.98047,-1.5 -6.04297,-3.98438 -1.42187,-3.33984 0.13672,-7.1875 3.44141,-8.61328 18.57422,-7.92968 32.9336,-6.01562 45.58984,-4.3164 6.17579,0.82031 12.03516,1.61718 17.6172,1.01172 18.1875,-1.91407 50.83983,-11.73438 58.68358,-22.16797 1.44532,-1.91406 3.16407,-6.1289 2.02735,-9.76172 -0.90235,-2.8711 -3.66797,-5.07813 -8.20313,-6.53906 -3.4414,-1.11329 -5.33593,-4.8047 -4.24218,-8.25782 1.11718,-3.4414 4.8125,-5.33203 8.26171,-4.23828 10.96094,3.53125 15.1211,10.14063 16.6836,15.0586 2.67578,8.41796 -0.49219,16.92968 -4.02344,21.62109 -5.3086,7.08594 -16.10937,13.45313 -32.13281,18.98047 -11.6211,4.01953 -25.625,7.30078 -35.66406,8.33984 -7.13672,0.76172 -14.02735,-0.16015 -20.70704,-1.07422 -11.5078,-1.52734 -23.4375,-3.12109 -38.6953,3.39454 -0.85157,0.35546 -1.71876,0.54687 -2.59766,0.54687 z M 376.5,401.76562 c -1.66406,0 -3.35938,-0.625 -4.64844,-1.91406 -2.57422,-2.57422 -2.57422,-6.71875 0,-9.27344 l 77.78125,-77.7578 c 2.57813,-2.57423 6.72266,-2.57423 9.27735,0 2.57421,2.57421 2.57421,6.72265 0,9.27343 l -77.78125,77.75781 c -1.26563,1.28906 -2.95313,1.91406 -4.62891,1.91406 z M 407.79297,427.25 c -1.66406,0 -3.36328,-0.625 -4.64844,-1.91406 -2.57422,-2.57422 -2.57422,-6.71875 0,-9.26953 l 78.6836,-78.66016 c 2.57421,-2.57422 6.72265,-2.57422 9.27343,0 2.57813,2.57422 2.57813,6.71875 0,9.27344 l -78.67969,78.65625 c -1.26562,1.27734 -2.92968,1.91406 -4.6289,1.91406 z m 5.60156,44.91797 c -1.66015,0 -3.35937,-0.625 -4.64844,-1.91406 -2.57421,-2.57422 -2.57421,-6.71875 0,-9.27344 l 87.8672,-87.83594 c 2.57421,-2.57422 6.71874,-2.57422 9.27343,0 2.57422,2.57422 2.57422,6.71875 0,9.27344 l -87.86328,87.83594 c -1.28516,1.28906 -2.96485,1.91406 -4.6289,1.91406 z m 0,0"
       id="path945" />
    <path
       fill="#93eaff"
       fill-rule="evenodd"
       d="m 323.01563,569.85547 c -1.77735,0 -3.53125,-0.70703 -4.8086,-2.10938 -2.46094,-2.65234 -2.30078,-6.8125 0.35156,-9.27343 l 19.88672,-18.39844 -65.57812,-70.96484 -19.85938,18.375 c -2.65625,2.46093 -6.8164,2.30078 -9.27734,-0.35547 -2.46094,-2.65235 -2.30078,-6.8125 0.35156,-9.27344 l 24.69531,-22.84766 c 1.28907,-1.17187 2.98438,-1.80078 4.70704,-1.7539 1.7539,0.0586 3.39453,0.8203 4.5664,2.10546 l 74.46485,80.59375 c 2.46093,2.65235 2.30078,6.8125 -0.35547,9.27344 l -24.69141,22.85157 c -1.2539,1.20312 -2.84766,1.77343 -4.45313,1.77343 z m 0,0"
       id="path947" />
    <path
       fill="#0086ff"
       fill-rule="evenodd"
       d="m 455.02344,242.07422 c -1.14844,0 -2.32422,-0.29688 -3.39453,-0.9375 -3.1211,-1.85547 -4.10157,-5.89844 -2.2461,-8.9961 7.08985,-11.78125 15.88672,-19.05859 26.14063,-21.62109 2.98437,-0.74219 6.67578,-0.84375 13.96875,-1.07422 7.38672,-0.21484 12.46875,-0.11328 16.21484,-0.0547 5.82422,0.11329 7.46485,0.11329 9.6875,-0.80078 2.3789,-1.0703 12.91016,-9.48828 22.91406,-18.74609 2.65235,-2.46094 6.8125,-2.30078 9.27344,0.35156 2.46094,2.65235 2.30078,6.8125 -0.35156,9.27344 -0.82031,0.76172 -20.125,18.5664 -26.9375,21.30078 -4.78516,1.91406 -8.36328,1.85938 -14.82422,1.71875 -3.57813,-0.0547 -8.53516,-0.15625 -15.58984,0.0234 -5.55079,0.16016 -9.54688,0.27734 -11.15625,0.6875 -6.75782,1.69531 -12.83204,6.94922 -18.07032,15.64062 -1.23046,2.1172 -3.39453,3.23438 -5.6289,3.23438 z M 569.8828,332.625 c -1.5,0 -2.98437,-0.49219 -4.21484,-1.52734 -2.75781,-2.32422 -3.1211,-6.48047 -0.79688,-9.23829 8.96875,-10.66015 10.88282,-21.02734 12.17188,-27.86328 0.4336,-2.32421 0.79687,-4.35156 1.38672,-6.03906 2.48828,-7.16406 4.92578,-12.41797 22.67578,-29.03515 2.65625,-2.48438 6.8164,-2.34766 9.27734,0.29687 2.48438,2.65234 2.34766,6.8125 -0.29687,9.26953 -16.27344,15.2539 -17.52344,18.84375 -19.25782,23.78516 -0.27343,0.76562 -0.5703,2.38281 -0.875,4.10156 -1.42578,7.71484 -3.80859,20.58594 -15.01953,33.92578 -1.33593,1.53516 -3.1914,2.32422 -5.04687,2.32422 z m 0,0"
       id="path949" />
    <g
       clip-path="url(#q)"
       id="g953">
      <path
         fill="#0086ff"
         fill-rule="evenodd"
         d="m 620.0586,286.17969 c -1.77735,0 -3.5547,-0.70313 -4.86329,-2.1289 L 523.7422,183.57811 c -1.17188,-1.28906 -1.77735,-2.98437 -1.69922,-4.72656 0.082,-1.74219 0.84375,-3.35937 2.13281,-4.53515 l 24.88281,-22.63282 c 2.6797,-2.4375 6.83985,-2.24218 9.27735,0.4336 2.4375,2.67578 2.2461,6.83594 -0.4336,9.27344 l -20.01953,18.1914 82.60938,90.76563 20.02343,-18.20313 c 2.67579,-2.4375 6.83594,-2.24219 9.27344,0.4336 2.4375,2.67578 2.2461,6.83593 -0.4336,9.27343 l -24.8828,22.63281 c -1.23438,1.1172 -2.81641,1.69922 -4.41407,1.69922 z m 0,0"
         id="path951" />
    </g>
    <path
       fill="#0086ff"
       fill-rule="evenodd"
       d="m 614.03906,448.02734 c -1.64062,0 -3.30468,-0.625 -4.59375,-1.85546 -0.79687,-0.76563 -19.57812,-19.16016 -22.64062,-25.8125 -2.16797,-4.67188 -2.26953,-8.25782 -2.48438,-14.7422 -0.11328,-3.57812 -0.27343,-8.49609 -0.82031,-15.55859 -0.4336,-5.52343 -0.76563,-9.51171 -1.23438,-11.1289 -2.02734,-6.64063 -7.59765,-12.46485 -16.54296,-17.2461 -3.20313,-1.69921 -4.39844,-5.6875 -2.71094,-8.88671 1.6875,-3.19922 5.6836,-4.39844 8.88672,-2.71094 12.14843,6.48047 19.84765,14.89844 22.91406,24.99219 0.90234,2.94921 1.17188,6.62109 1.77734,13.88671 0.57032,7.35938 0.7422,12.46094 0.87891,16.1875 0.1914,5.82032 0.27344,7.46094 1.28906,9.64844 1.20703,2.32422 10.14063,12.41797 19.88282,21.92969 2.59765,2.53906 2.65234,6.69531 0.11328,9.26953 -1.32032,1.34375 -3.01954,2.02734 -4.71485,2.02734 z m -65.73828,66.1836 c -1.64062,0 -3.28125,-0.60547 -4.53516,-1.83594 -16.07812,-15.46875 -19.71484,-16.53906 -24.75,-18.01953 -0.76171,-0.21485 -2.40234,-0.4336 -4.16015,-0.6836 -7.76953,-1.03515 -20.76172,-2.7578 -34.65234,-13.28125 -2.89454,-2.1875 -3.44141,-6.30859 -1.25391,-9.17968 2.1875,-2.89453 6.3125,-3.4414 9.1836,-1.2539 11.1328,8.41796 21.54687,9.8203 28.4414,10.71874 2.34766,0.29688 4.375,0.57031 6.09375,1.09375 7.27344,2.1289 12.64062,4.29297 30.16406,21.16406 2.59766,2.51954 2.67578,6.67579 0.16016,9.27344 -1.25,1.32031 -2.97266,2.0039 -4.6914,2.0039 z m 0,0"
       id="path955" />
    <path
       fill="#0086ff"
       fill-rule="evenodd"
       d="m 557.03125,553.1875 c -1.66406,0 -3.33984,-0.625 -4.6289,-1.91406 l -23.8711,-23.70313 c -1.23047,-1.23047 -1.9336,-2.89453 -1.9336,-4.6289 0,-1.75391 0.6836,-3.41407 1.91407,-4.64454 L 624.25,421.90234 c 2.54297,-2.57421 6.70313,-2.59765 9.27734,-0.0234 l 23.8711,23.70703 c 2.57422,2.53906 2.59765,6.69531 0.0234,9.27344 -2.54296,2.57421 -6.70312,2.59765 -9.27734,0.0234 l -19.22266,-19.08203 -86.47656,87.07422 19.22266,19.08203 c 2.57812,2.53906 2.60156,6.69922 0.0234,9.27344 -1.30079,1.29687 -2.9961,1.95703 -4.66016,1.95703 z m 0,0"
       id="path957" />
    <text
       xml:space="preserve"
       style="font-style:normal;font-variant:normal;font-weight:900;font-stretch:normal;font-size:64px;line-height:1.25;font-family:'Red Hat Display';-inkscape-font-specification:'Red Hat Display Heavy';letter-spacing:5px;fill:#0086ff;fill-opacity:1;stroke:none"
       x="270.69672"
       y="825.52551"
       id="text3696"><tspan
         sodipodi:role="line"
         id="tspan3694"
         x="270.69672"
         y="825.52551"
         style="font-style:normal;font-variant:normal;font-weight:900;font-stretch:normal;font-size:64px;font-family:'Red Hat Display';-inkscape-font-specification:'Red Hat Display Heavy';fill:#0086ff;fill-opacity:1">ISTANBUL</tspan></text>
  </g>
</svg>
