<?xml version="1.0" encoding="UTF-8" standalone="no"?>
<svg
   role="img"
   viewBox="34.01 133.51 800.00002 800.00003"
   version="1.1"
   id="svg959"
   sodipodi:docname="logo_twitter_dark_bg.svg"
   width="800"
   height="800"
   inkscape:version="1.1 (c4e8f9e, 2021-05-24)"
   inkscape:export-filename="/Users/aliok/Desktop/bitmap.png"
   inkscape:export-xdpi="48"
   inkscape:export-ydpi="48"
   xmlns:inkscape="http://www.inkscape.org/namespaces/inkscape"
   xmlns:sodipodi="http://sodipodi.sourceforge.net/DTD/sodipodi-0.dtd"
   xmlns="http://www.w3.org/2000/svg"
   xmlns:svg="http://www.w3.org/2000/svg">
  <sodipodi:namedview
     id="namedview961"
     pagecolor="#ffffff"
     bordercolor="#666666"
     borderopacity="1.0"
     inkscape:pageshadow="2"
     inkscape:pageopacity="0.0"
     inkscape:pagecheckerboard="0"
     showgrid="false"
     units="px"
     inkscape:zoom="0.5957467"
     inkscape:cx="611.83721"
     inkscape:cy="598.40869"
     inkscape:window-width="2560"
     inkscape:window-height="1311"
     inkscape:window-x="1792"
     inkscape:window-y="25"
     inkscape:window-maximized="1"
     inkscape:current-layer="svg959" />
  <defs
     id="defs875">
    <clipPath
       id="a">
      <path
         d="m 50,700 h 45 v 49.92969 H 50 Z m 0,0"
         id="path824" />
    </clipPath>
    <clipPath
       id="b">
      <path
         d="m 101,700 h 51 v 49.92969 h -51 z m 0,0"
         id="path827" />
    </clipPath>
    <clipPath
       id="c">
      <path
         d="m 162,701 h 52 v 48.92969 h -52 z m 0,0"
         id="path830" />
    </clipPath>
    <clipPath
       id="d">
      <path
         d="m 226,701 h 51 v 48.92969 h -51 z m 0,0"
         id="path833" />
    </clipPath>
    <clipPath
       id="e">
      <path
         d="m 289,701 h 44 v 48.92969 h -44 z m 0,0"
         id="path836" />
    </clipPath>
    <clipPath
       id="f">
      <path
         d="m 345,701 h 45 v 48.92969 h -45 z m 0,0"
         id="path839" />
    </clipPath>
    <clipPath
       id="g">
      <path
         d="m 402,701 h 12 v 48.92969 h -12 z m 0,0"
         id="path842" />
    </clipPath>
    <clipPath
       id="h">
      <path
         d="m 422,701 h 41 v 48.92969 h -41 z m 0,0"
         id="path845" />
    </clipPath>
    <clipPath
       id="i">
      <path
         d="m 468,701 h 49 v 48.92969 h -49 z m 0,0"
         id="path848" />
    </clipPath>
    <clipPath
       id="j">
      <path
         d="m 542,700 h 46 v 49.92969 h -46 z m 0,0"
         id="path851" />
    </clipPath>
    <clipPath
       id="k">
      <path
         d="m 599,701 h 41 v 48.92969 h -41 z m 0,0"
         id="path854" />
    </clipPath>
    <clipPath
       id="l">
      <path
         d="m 647,700 h 52 v 49.92969 h -52 z m 0,0"
         id="path857" />
    </clipPath>
    <clipPath
       id="m">
      <path
         d="m 707,701 h 45 v 48.92969 h -45 z m 0,0"
         id="path860" />
    </clipPath>
    <clipPath
       id="n">
      <path
         d="m 763,701 h 41 v 48.92969 h -41 z m 0,0"
         id="path863" />
    </clipPath>
    <clipPath
       id="o">
      <path
         d="m 810,700 h 40.15625 v 49.92969 H 810 Z m 0,0"
         id="path866" />
    </clipPath>
    <clipPath
       id="p">
      <path
         d="M 249,149.92969 H 386 V 280 H 249 Z m 0,0"
         id="path869" />
    </clipPath>
    <clipPath
       id="q">
      <path
         d="M 522,149.92969 H 652 V 287 H 522 Z m 0,0"
         id="path872" />
    </clipPath>
  </defs>
  <rect
     style="opacity:0.99;fill:#000000;stroke:#000000;stroke-width:0.334557"
     id="rect1008"
     width="799.66541"
     height="799.66547"
     x="34.177277"
     y="133.67728" />
  <g
     id="g1029"
     transform="matrix(0.92307692,0,0,0.92307692,39.776477,65.590294)">
    <path
       fill="#8a8e94"
       d="m 198.16549,630.6427 c 0,-10.94701 9.53143,-20.13565 20.7641,-20.13565 5.90041,0 11.2898,2.49792 15.08904,6.52251 l -6.06863,5.44652 c -2.21225,-2.609 -5.50365,-4.36738 -9.02041,-4.36738 -6.57963,0 -12.14043,5.78297 -12.14043,12.534 0,6.80499 5.5608,12.59113 12.14043,12.59113 3.57389,0 6.80815,-1.75838 9.02041,-4.36738 l 6.06863,5.44335 c -3.79924,3.97064 -9.18863,6.5225 -15.08903,6.5225 -11.23268,0 -20.76412,-9.24259 -20.76412,-20.1896 z m 71.54123,11.96586 v 7.54452 h -27.80078 v -38.96364 h 8.39832 v 31.41911 z m 5.56079,-11.96586 c 0,-10.94701 9.53143,-20.13565 20.7641,-20.13565 11.22949,0 20.64983,9.18864 20.64983,20.13565 0,10.94702 -9.42034,20.18961 -20.64983,20.18961 -11.23267,0 -20.7641,-9.24259 -20.7641,-20.18961 z m 32.8474,0 c 0,-6.75103 -5.5608,-12.534 -12.08331,-12.534 -6.5828,0 -12.14359,5.78297 -12.14359,12.534 0,6.80499 5.56079,12.59113 12.14359,12.59113 6.52251,0 12.08331,-5.78614 12.08331,-12.59113 z m 16.45384,2.66613 v -22.11939 h 8.33801 v 21.77659 c 0,6.01468 3.85955,10.26779 9.30608,10.26779 5.38939,0 9.24577,-4.25311 9.24577,-10.26779 v -21.77659 h 8.39831 v 22.11938 c 0,10.26462 -7.31917,17.52347 -17.64409,17.52347 -10.38204,0 -17.64408,-7.25885 -17.64408,-17.52347 z m 45.44487,-22.11938 h 14.01307 c 13.10531,0 22.40821,8.05236 22.40821,19.45324 0,11.39772 -9.3029,19.51039 -22.40821,19.51039 h -14.01307 z m 15.09222,31.36197 c 7.43026,0 12.70539,-4.93233 12.70539,-11.90872 0,-6.91925 -5.27514,-11.85476 -12.70539,-11.85476 h -6.69707 v 23.76348 z m 46.52083,-31.36197 h 8.39516 l 18.77718,25.18226 v -25.18226 h 8.39833 v 38.96363 h -8.39833 l -18.77719,-25.18226 v 25.18226 h -8.39514 z m 72.04907,32.26974 h -16.90455 l -2.72326,6.69389 h -9.36003 l 15.88253,-38.96363 h 9.36321 l 15.88254,38.96363 H 506.399 Z m -2.66613,-6.52251 -5.78615,-14.23524 -5.78614,14.23524 z m 31.31754,-18.2027 h -12.14042 v -7.54453 h 32.67916 v 7.54453 h -12.20073 v 31.4191 h -8.33801 z m 28.36892,-7.54453 h 8.39514 v 38.96363 h -8.39514 z m 57.07111,0 -15.88253,38.96363 h -9.36321 l -15.8857,-38.96363 h 9.41715 l 11.17872,27.44847 11.11841,-27.44847 z m 15.94285,7.54453 v 7.76986 h 19.63098 v 7.54135 h -19.63099 v 8.56337 h 21.61789 v 7.54452 h -30.01304 v -38.96364 h 30.01304 v 7.54453 z m 0,0"
       id="path877"
       style="stroke-width:0.812535" />
    <g
       id="g16872"
       transform="matrix(0.8125357,0,0,0.8125357,61.418273,110.35642)">
      <g
         clip-path="url(#a)"
         id="g881">
        <path
           fill="#8a8e94"
           d="m 50.05078,725.08203 c 0,-13.47266 11.73047,-24.77734 25.55469,-24.77734 7.26172,0 13.89453,3.07031 18.57031,8.02343 l -7.46875,6.70313 c -2.72266,-3.21094 -6.77344,-5.375 -11.10156,-5.375 -8.09766,0 -14.9414,7.1211 -14.9414,15.42578 0,8.375 6.84374,15.4961 14.9414,15.4961 4.39844,0 8.3789,-2.16407 11.10156,-5.375 l 7.46875,6.69921 c -4.67578,4.88672 -11.3086,8.02735 -18.57031,8.02735 -13.82422,0 -25.55469,-11.375 -25.55469,-24.84766 z m 0,0"
           id="path879" />
      </g>
      <g
         clip-path="url(#b)"
         id="g885">
        <path
           fill="#8a8e94"
           d="m 101.01953,725.08203 c 0,-13.47266 11.73047,-24.77734 25.55469,-24.77734 13.82422,0 25.41797,11.30468 25.41797,24.77734 0,13.47266 -11.59375,24.84766 -25.41797,24.84766 -13.82422,0 -25.55469,-11.375 -25.55469,-24.84766 z m 40.42578,0 c 0,-8.30469 -6.83984,-15.42578 -14.8711,-15.42578 -8.09765,0 -14.9414,7.1211 -14.9414,15.42578 0,8.375 6.84375,15.4961 14.9414,15.4961 8.03126,0 14.8711,-7.1211 14.8711,-15.4961 z m 0,0"
           id="path883" />
      </g>
      <g
         clip-path="url(#c)"
         id="g889">
        <path
           fill="#8a8e94"
           d="m 162.7461,701.14063 h 10.33202 l 14.80079,27.08203 14.87109,-27.08204 h 10.26563 v 47.95313 H 202.75 v -29.875 l -14.8711,27.08203 -14.80077,-27.08203 v 29.875 h -10.33204 z m 0,0"
           id="path887" />
      </g>
      <g
         clip-path="url(#d)"
         id="g893">
        <path
           fill="#8a8e94"
           d="m 226.63672,701.14063 h 10.33203 l 14.80078,27.08203 14.8711,-27.08204 h 10.26562 v 47.95313 h -10.26563 v -29.875 l -14.87109,27.08203 -14.80078,-27.08203 v 29.875 h -10.33203 z m 0,0"
           id="path891" />
      </g>
      <g
         clip-path="url(#e)"
         id="g897">
        <path
           fill="#8a8e94"
           d="m 289.47656,728.36328 v -27.22266 h 10.26172 v 26.8047 c 0,7.39843 4.7461,12.6328 11.44922,12.6328 6.63672,0 11.38281,-5.23437 11.38281,-12.6328 v -26.8047 h 10.33203 v 27.22266 c 0,12.63281 -9.0078,21.5664 -21.71484,21.5664 -12.77734,0 -21.71094,-8.93359 -21.71094,-21.5664 z m 0,0"
           id="path895" />
      </g>
      <g
         clip-path="url(#f)"
         id="g901">
        <path
           fill="#8a8e94"
           d="m 345.40625,701.14063 h 10.33203 l 23.10938,30.99218 v -30.99218 h 10.33203 v 47.95312 h -10.33203 l -23.10938,-30.99219 v 30.99219 h -10.33203 z m 0,0"
           id="path899" />
      </g>
      <g
         clip-path="url(#g)"
         id="g905">
        <path
           fill="#8a8e94"
           d="m 402.73047,701.14063 h 10.33203 v 47.95312 h -10.33203 z m 0,0"
           id="path903" />
      </g>
      <g
         clip-path="url(#h)"
         id="g909">
        <path
           fill="#8a8e94"
           d="m 437.71094,710.42578 h -14.9414 v -9.28516 h 40.21483 v 9.28516 h -15.01171 v 38.66797 h -10.26172 z m 0,0"
           id="path907" />
      </g>
      <g
         clip-path="url(#i)"
         id="g913">
        <path
           fill="#8a8e94"
           d="m 486.9336,731.78516 -18.78126,-30.64454 h 12.00782 l 11.9414,21.01172 12.42578,-21.01171 h 11.52344 l -18.71484,30.64453 v 17.30859 h -10.40235 z m 0,0"
           id="path911" />
      </g>
      <g
         clip-path="url(#j)"
         id="g917">
        <path
           fill="#8a8e94"
           d="m 566.60156,722.15234 h 21.15625 v 19.75 c -4.7461,5.02735 -12.21875,8.02735 -19.33984,8.02735 -13.96484,0 -25.76563,-11.375 -25.76563,-24.84766 0,-13.47266 11.80079,-24.77734 25.76563,-24.77734 7.1211,0 14.59375,3 19.33984,8.02343 l -7.47265,6.70313 c -2.86329,-3.28125 -7.46875,-5.375 -11.8672,-5.375 -8.24218,0 -15.15233,7.1211 -15.15233,15.42578 0,8.375 6.91015,15.4961 15.15234,15.4961 3.21094,0 6.63281,-1.1172 9.28516,-3.07032 v -7.33203 h -11.10157 z m 0,0"
           id="path915" />
      </g>
      <g
         clip-path="url(#k)"
         id="g921">
        <path
           fill="#8a8e94"
           d="m 627.14063,732.6914 11.51953,16.40235 h -11.73047 l -10.96094,-15.5664 h -6.21484 v 15.5664 h -10.33204 v -47.95313 h 21.57422 c 10.47266,0 18.08204,6.69922 18.08204,16.19532 0,7.53515 -4.7461,13.26172 -11.9375,15.35547 z m -17.38672,-8.58593 h 10.1953 c 5.09376,0 8.58595,-2.65234 8.58595,-6.76953 0,-4.1211 -3.4922,-6.77344 -8.58594,-6.77344 H 609.7539 Z m 0,0"
           id="path919" />
      </g>
      <g
         clip-path="url(#l)"
         id="g925">
        <path
           fill="#8a8e94"
           d="m 647.10938,725.08203 c 0,-13.47266 11.73046,-24.77734 25.55468,-24.77734 13.82422,0 25.41407,11.30468 25.41407,24.77734 0,13.47266 -11.58985,24.84766 -25.41407,24.84766 -13.82422,0 -25.55468,-11.375 -25.55468,-24.84766 z m 40.42578,0 c 0,-8.30469 -6.83985,-15.42578 -14.8711,-15.42578 -8.09765,0 -14.9414,7.1211 -14.9414,15.42578 0,8.375 6.84375,15.4961 14.9414,15.4961 8.03125,0 14.8711,-7.1211 14.8711,-15.4961 z m 0,0"
           id="path923" />
      </g>
      <g
         clip-path="url(#m)"
         id="g929">
        <path
           fill="#8a8e94"
           d="m 707.78516,728.36328 v -27.22266 h 10.26562 v 26.8047 c 0,7.39843 4.7461,12.6328 11.44922,12.6328 6.63281,0 11.3789,-5.23437 11.3789,-12.6328 v -26.8047 h 10.33594 v 27.22266 c 0,12.63281 -9.0078,21.5664 -21.71484,21.5664 -12.77734,0 -21.71484,-8.93359 -21.71484,-21.5664 z m 0,0"
           id="path927" />
      </g>
      <g
         clip-path="url(#n)"
         id="g933">
        <path
           fill="#8a8e94"
           d="m 763.71484,701.14063 h 21.57813 c 10.46875,0 18.08203,6.69921 18.08203,16.1953 0,9.4922 -7.61328,16.19141 -18.08203,16.19141 h -11.24219 v 15.56641 h -10.33594 z m 20.52735,22.96484 c 5.09765,0 8.58984,-2.65234 8.58984,-6.76953 0,-4.1211 -3.49219,-6.77344 -8.58984,-6.77344 h -10.1914 v 13.54297 z m 0,0"
           id="path931" />
      </g>
      <g
         clip-path="url(#o)"
         id="g937">
        <path
           fill="#8a8e94"
           d="m 810.07813,741.97266 5.86328,-7.04688 c 4.53906,3.90625 9.70703,6.28125 15.78125,6.28125 5.23828,0 7.89062,-2.375 7.89062,-5.375 0,-3.42187 -2.79687,-4.46875 -10.125,-6.14453 -10.125,-2.30078 -17.38672,-5.16406 -17.38672,-14.44531 0,-8.86719 7.26172,-14.9375 17.80469,-14.9375 7.82031,0 13.82422,2.4414 18.78125,6.6289 l -5.375,7.46875 c -4.33203,-3.48828 -9.14844,-5.375 -13.75781,-5.375 -4.32813,0 -7.05078,2.3047 -7.05078,5.16407 0,3.49218 2.93359,4.60937 10.33593,6.28515 10.33204,2.30078 17.17579,5.375 17.17579,14.23828 0,9.14454 -6.98438,15.21485 -18.64454,15.21485 -8.375,0 -15.71093,-2.78907 -21.29296,-7.95703 z m 0,0"
           id="path935" />
      </g>
    </g>
    <path
       fill="#0086ff"
       fill-rule="evenodd"
       d="m 333.32256,397.13708 c -0.93315,0 -1.88851,-0.24122 -2.75819,-0.75859 -9.57268,-5.75757 -15.49212,-12.90217 -17.57424,-21.23382 -0.59989,-2.42492 -0.68559,-5.42433 -0.86968,-11.34695 -0.17774,-5.9988 -0.092,-10.12496 -0.0476,-13.16879 0.092,-4.73239 0.092,-6.06544 -0.64748,-7.86827 -0.87285,-1.9361 -7.71275,-10.48678 -15.2414,-18.61531 -1.9996,-2.15512 -1.86946,-5.53223 0.28884,-7.53183 2.15829,-1.9996 5.5354,-1.86946 7.53817,0.28566 0.61892,0.66653 15.08903,16.34593 17.31399,21.88133 1.55525,3.88811 1.50763,6.79547 1.39654,12.04203 -0.0476,2.90737 -0.13013,6.93195 0.019,12.66096 0.13014,4.51021 0.22218,7.75718 0.55545,9.06169 1.38067,5.49096 5.64966,10.42329 12.71174,14.67959 2.536,1.51081 3.33267,4.79586 1.82503,7.31282 -0.93632,1.66634 -2.71374,2.59948 -4.51021,2.59948 z m 73.59795,-93.30831 c -1.22197,0 -2.42808,-0.3999 -3.42788,-1.24101 -8.66493,-7.28426 -17.08864,-8.83949 -22.64626,-9.88374 -1.88851,-0.3523 -3.5358,-0.64749 -4.90695,-1.12993 -5.82424,-2.01864 -10.09322,-3.9992 -23.60162,-18.41854 -2.01864,-2.15512 -1.90756,-5.5354 0.24122,-7.53499 2.1583,-2.01864 5.53857,-1.90756 7.53817,0.24122 12.42608,13.21641 15.31439,14.23524 19.32946,15.64131 0.6221,0.22218 1.93613,0.4634 3.33584,0.71414 6.26541,1.15533 16.72998,3.09146 27.57226,12.19757 2.23765,1.88851 2.536,5.26561 0.64749,7.50643 -1.06329,1.26959 -2.5741,1.90755 -4.08173,1.90755 z m 0,0"
       id="path939"
       style="stroke-width:0.812535" />
    <g
       clip-path="url(#p)"
       id="g943"
       transform="matrix(0.8125357,0,0,0.8125357,61.418273,110.35642)">
      <path
         fill="#0086ff"
         fill-rule="evenodd"
         d="m 278.2461,279.34766 h -0.29688 c -1.7539,-0.082 -3.36328,-0.84375 -4.53516,-2.13282 l -22.64062,-24.875 c -2.4375,-2.67968 -2.2461,-6.83593 0.4336,-9.27343 2.67577,-2.4375 6.83593,-2.2461 9.27343,0.43359 l 18.21094,20.01172 90.79296,-82.58594 -18.20703,-20.01172 c -2.4375,-2.67969 -2.24609,-6.83594 0.4336,-9.27344 2.67578,-2.4375 6.83594,-2.24609 9.27344,0.4297 l 22.64062,24.8789 c 2.4414,2.67969 2.2461,6.83594 -0.42969,9.27344 l -100.52734,91.42578 c -1.21875,1.09375 -2.80469,1.69922 -4.42188,1.69922 z m 0,0"
         id="path941" />
    </g>
    <path
       fill="#93eaff"
       fill-rule="evenodd"
       d="m 294.12406,501.00834 c -0.87285,0 -1.73299,-0.20313 -2.55823,-0.64749 -2.57091,-1.4251 -3.53579,-4.64669 -2.11068,-7.23982 l 38.34788,-70.12881 c 1.93611,-3.6215 4.39911,-6.90338 7.35408,-9.75677 l 50.72635,-48.76168 c 2.12973,-2.04402 5.49096,-1.98055 7.53817,0.15872 2.04404,2.12655 1.98055,5.48778 -0.1587,7.53182 l -50.72635,48.76483 c -2.1583,2.06308 -3.95476,4.45942 -5.35132,7.08747 -0.019,0.019 -0.019,0.0476 -0.0476,0.0666 l -38.37961,70.17643 c -0.92363,1.74885 -2.74549,2.74865 -4.63718,2.74865 z m 37.08781,40.04278 c -2.06626,0 -4.04682,-1.2188 -4.91013,-3.23745 -1.15533,-2.71374 0.11108,-5.84011 2.79626,-6.9986 15.09222,-6.44314 26.75973,-4.88791 37.04337,-3.50723 5.01806,0.66653 9.779,1.31402 14.31461,0.82206 14.77799,-1.55525 41.30918,-9.53461 47.6825,-18.01227 1.17438,-1.55524 2.57092,-4.97995 1.6473,-7.93175 -0.73319,-2.33286 -2.98036,-4.12616 -6.66533,-5.31322 -2.79627,-0.90458 -4.33564,-3.90398 -3.44694,-6.70977 0.90776,-2.79625 3.91034,-4.33246 6.71294,-3.44376 8.90616,2.86927 12.28643,8.23964 13.55602,12.23566 2.17417,6.83989 -0.39991,13.75597 -3.26918,17.5679 -4.31343,5.75758 -13.08944,10.93116 -26.10906,15.42231 -9.44256,3.26602 -20.82123,5.93215 -28.97832,6.77643 -5.79884,0.61892 -11.39772,-0.13013 -16.82521,-0.87285 -9.3505,-1.24102 -19.0438,-2.53599 -31.44131,2.75818 -0.69193,0.28883 -1.39655,0.44436 -2.1107,0.44436 z m 36.1261,-104.2458 c -1.35212,0 -2.72962,-0.50783 -3.77703,-1.55524 -2.09165,-2.09164 -2.09165,-5.45923 0,-7.535 l 63.20004,-63.18099 c 2.09482,-2.09165 5.4624,-2.09165 7.53818,0 2.09164,2.09164 2.09164,5.46239 0,7.535 l -63.20004,63.18099 c -1.02837,1.04741 -2.39952,1.55524 -3.76115,1.55524 z m 25.42665,20.70697 c -1.35211,0 -2.73279,-0.50783 -3.77702,-1.55524 -2.09164,-2.09165 -2.09164,-5.45922 0,-7.53182 l 63.93323,-63.91419 c 2.09163,-2.09165 5.46239,-2.09165 7.53499,0 2.09482,2.09164 2.09482,5.45923 0,7.535 l -63.93005,63.91101 c -1.02836,1.03788 -2.38048,1.55524 -3.76115,1.55524 z m 4.55147,36.49746 c -1.34893,0 -2.72961,-0.50784 -3.77702,-1.55525 -2.09165,-2.09164 -2.09165,-5.45922 0,-7.535 l 71.39524,-71.36983 c 2.09163,-2.09165 5.45921,-2.09165 7.53498,0 2.09165,2.09164 2.09165,5.45922 0,7.535 l -71.39205,71.36983 c -1.04424,1.04741 -2.40904,1.55525 -3.76114,1.55525 z m 0,0"
       id="path945"
       style="stroke-width:0.812535" />
    <path
       fill="#93eaff"
       fill-rule="evenodd"
       d="m 323.88001,573.38433 c -1.44416,0 -2.86927,-0.57449 -3.90716,-1.71395 -1.99961,-2.15512 -1.86947,-5.5354 0.28565,-7.53499 l 16.15867,-14.94939 -53.28456,-57.66147 -16.13646,14.93035 c -2.1583,1.99959 -5.53857,1.86947 -7.53816,-0.28883 -1.99961,-2.15513 -1.86948,-5.5354 0.28564,-7.53501 l 20.06583,-18.56453 c 1.04742,-0.95219 2.42492,-1.4632 3.82464,-1.42511 1.4251,0.0476 2.75817,0.66652 3.71036,1.71076 l 60.50535,65.4853 c 1.99959,2.15512 1.86946,5.5354 -0.28884,7.535 l -20.06265,18.56771 c -1.01883,0.97758 -2.31382,1.44098 -3.61832,1.44098 z m 0,0"
       id="path947"
       style="stroke-width:0.812535" />
    <path
       fill="#0086ff"
       fill-rule="evenodd"
       d="m 431.14107,307.05036 c -0.93315,0 -1.88851,-0.24122 -2.75819,-0.76175 -2.536,-1.50764 -3.33267,-4.79269 -1.82503,-7.30965 5.76076,-9.57269 12.90853,-15.48579 21.2402,-17.56791 2.4249,-0.60306 5.4243,-0.68558 11.3501,-0.87284 6.00197,-0.17457 10.1313,-0.092 13.17514,-0.0445 4.73238,0.092 6.06546,0.092 7.87144,-0.65066 1.93294,-0.86965 10.48997,-7.70957 18.61849,-15.23187 2.15513,-1.9996 5.5354,-1.86946 7.535,0.28566 1.9996,2.15513 1.86946,5.5354 -0.28566,7.535 -0.66653,0.61892 -16.35227,15.08586 -21.88767,17.30764 -3.88811,1.55524 -6.79547,1.51082 -12.04521,1.39655 -2.90736,-0.0445 -6.93512,-0.12696 -12.66731,0.019 -4.51021,0.13013 -7.75717,0.22535 -9.06484,0.55862 -5.49098,1.3775 -10.42649,5.64649 -14.68279,12.70856 -0.99979,1.7203 -2.75817,2.62805 -4.57367,2.62805 z m 93.32732,73.57574 c -1.2188,0 -2.42491,-0.39992 -3.4247,-1.24102 -2.24082,-1.88851 -2.53601,-5.26561 -0.64749,-7.50644 7.28742,-8.66175 8.84267,-17.08546 9.89008,-22.63991 0.35232,-1.8885 0.64748,-3.53579 1.12676,-4.90695 2.02181,-5.82106 4.00237,-10.09004 18.42488,-23.59209 2.15829,-2.01865 5.53856,-1.90756 7.53817,0.24121 2.01865,2.15512 1.90755,5.5354 -0.24122,7.53183 -13.22275,12.39434 -14.23842,15.31121 -15.64766,19.32629 -0.22218,0.62209 -0.46339,1.93612 -0.71097,3.33266 -1.1585,6.26858 -3.09462,16.72681 -12.20391,27.56591 -1.08549,1.24738 -2.59313,1.88851 -4.10076,1.88851 z m 0,0"
       id="path949"
       style="stroke-width:0.812535" />
    <g
       clip-path="url(#q)"
       id="g953"
       transform="matrix(0.8125357,0,0,0.8125357,61.418273,110.35642)">
      <path
         fill="#0086ff"
         fill-rule="evenodd"
         d="m 620.0586,286.17969 c -1.77735,0 -3.5547,-0.70313 -4.86329,-2.1289 L 523.7422,183.57811 c -1.17188,-1.28906 -1.77735,-2.98437 -1.69922,-4.72656 0.082,-1.74219 0.84375,-3.35937 2.13281,-4.53515 l 24.88281,-22.63282 c 2.6797,-2.4375 6.83985,-2.24218 9.27735,0.4336 2.4375,2.67578 2.2461,6.83594 -0.4336,9.27344 l -20.01953,18.1914 82.60938,90.76563 20.02343,-18.20313 c 2.67579,-2.4375 6.83594,-2.24219 9.27344,0.4336 2.4375,2.67578 2.2461,6.83593 -0.4336,9.27343 l -24.8828,22.63281 c -1.23438,1.1172 -2.81641,1.69922 -4.41407,1.69922 z m 0,0"
         id="path951" />
    </g>
    <path
       fill="#0086ff"
       fill-rule="evenodd"
       d="m 560.34693,474.39462 c -1.33306,0 -2.68517,-0.50783 -3.73259,-1.50762 -0.64748,-0.62211 -15.90792,-15.56832 -18.39631,-20.97358 -1.76155,-3.79608 -1.84407,-6.70978 -2.01864,-11.97856 -0.092,-2.90736 -0.22217,-6.90339 -0.66653,-12.64192 -0.35232,-4.48798 -0.62211,-7.7286 -1.00298,-9.04262 -1.64729,-5.39576 -6.17337,-10.12815 -13.44175,-14.01307 -2.60266,-1.38068 -3.57389,-4.6213 -2.20274,-7.22078 1.37116,-2.59948 4.61813,-3.57389 7.22079,-2.20273 9.87103,5.26561 16.12691,12.10552 18.61848,20.30704 0.73319,2.39635 0.9522,5.37987 1.44416,11.28345 0.4634,5.97976 0.60306,10.12496 0.71414,13.15292 0.15552,4.72922 0.22218,6.06228 1.04741,7.83971 0.98076,1.88851 8.23962,10.09004 16.1555,17.81865 2.11068,2.06308 2.15512,5.44018 0.092,7.53183 -1.0728,1.09184 -2.45348,1.64728 -3.83098,1.64728 z m -53.41469,53.77654 c -1.33307,0 -2.66614,-0.49197 -3.68498,-1.49177 -13.06406,-12.56891 -16.01902,-13.43857 -20.11026,-14.64151 -0.61892,-0.17457 -1.95199,-0.35231 -3.38028,-0.55544 -6.31301,-0.8411 -16.86964,-2.24081 -28.15626,-10.7915 -2.35192,-1.77742 -2.79627,-5.12596 -1.01885,-7.45881 1.77742,-2.35192 5.12914,-2.79627 7.46201,-1.01884 9.0458,6.83989 17.5076,7.97934 23.10965,8.70936 1.90756,0.24122 3.55484,0.46339 4.95139,0.8887 5.90993,1.72981 10.27095,3.4882 24.50937,17.19656 2.1107,2.04721 2.17417,5.42432 0.13014,7.535 -1.01567,1.0728 -2.41539,1.62824 -3.81193,1.62824 z m 0,0"
       id="path955"
       style="stroke-width:0.812535" />
    <path
       fill="#0086ff"
       fill-rule="evenodd"
       d="m 514.02605,559.84101 c -1.3521,0 -2.71374,-0.50784 -3.76114,-1.55524 l -19.39612,-19.25964 c -0.99981,-0.9998 -1.57113,-2.35191 -1.57113,-3.76115 0,-1.42512 0.55545,-2.77405 1.55526,-3.77385 l 77.79076,-78.324 c 2.06626,-2.09164 5.44654,-2.11068 7.53817,-0.019 l 19.39612,19.26282 c 2.09165,2.06307 2.11069,5.44017 0.019,7.53499 -2.06625,2.09164 -5.44653,2.11069 -7.53817,0.019 l -15.6191,-15.50483 -70.26529,70.75091 15.6191,15.50483 c 2.09481,2.06307 2.11386,5.44335 0.019,7.535 -1.05694,1.05376 -2.43444,1.59016 -3.78655,1.59016 z m 0,0"
       id="path957"
       style="stroke-width:0.812535" />
    <text
       xml:space="preserve"
       style="font-style:normal;font-variant:normal;font-weight:900;font-stretch:normal;font-size:52.0023px;line-height:1.25;font-family:'Red Hat Display';-inkscape-font-specification:'Red Hat Display Heavy';letter-spacing:4.06268px;fill:#0086ff;fill-opacity:1;stroke:none;stroke-width:0.812535"
       x="281.36902"
       y="781.12537"
       id="text3696"><tspan
         sodipodi:role="line"
         id="tspan3694"
         x="281.36902"
         y="781.12537"
         style="font-style:normal;font-variant:normal;font-weight:900;font-stretch:normal;font-size:52.0023px;font-family:'Red Hat Display';-inkscape-font-specification:'Red Hat Display Heavy';fill:#0086ff;fill-opacity:1;stroke-width:0.812535">ISTANBUL</tspan></text>
  </g>
</svg>
