<?xml version="1.0" encoding="UTF-8" standalone="no"?>
<svg
   role="img"
   viewBox="34.01 133.51 400.00001 400.00002"
   version="1.1"
   id="svg959"
   sodipodi:docname="logo_icon_only.svg"
   width="400"
   height="400"
   inkscape:version="1.1 (c4e8f9e, 2021-05-24)"
   inkscape:export-filename="/Users/aliok/Desktop/bitmap.png"
   inkscape:export-xdpi="96"
   inkscape:export-ydpi="96"
   xmlns:inkscape="http://www.inkscape.org/namespaces/inkscape"
   xmlns:sodipodi="http://sodipodi.sourceforge.net/DTD/sodipodi-0.dtd"
   xmlns="http://www.w3.org/2000/svg"
   xmlns:svg="http://www.w3.org/2000/svg">
  <sodipodi:namedview
     id="namedview961"
     pagecolor="#ffffff"
     bordercolor="#666666"
     borderopacity="1.0"
     inkscape:pageshadow="2"
     inkscape:pageopacity="0.0"
     inkscape:pagecheckerboard="0"
     showgrid="false"
     units="px"
     inkscape:zoom="0.5957467"
     inkscape:cx="-1028.1215"
     inkscape:cy="541.33745"
     inkscape:window-width="1296"
     inkscape:window-height="1003"
     inkscape:window-x="2240"
     inkscape:window-y="25"
     inkscape:window-maximized="0"
     inkscape:current-layer="svg959"
     fit-margin-top="0"
     fit-margin-left="0"
     fit-margin-right="0"
     fit-margin-bottom="0" />
  <defs
     id="defs875">
    <clipPath
       id="a">
      <path
         d="m 50,700 h 45 v 49.92969 H 50 Z m 0,0"
         id="path824" />
    </clipPath>
    <clipPath
       id="b">
      <path
         d="m 101,700 h 51 v 49.92969 h -51 z m 0,0"
         id="path827" />
    </clipPath>
    <clipPath
       id="c">
      <path
         d="m 162,701 h 52 v 48.92969 h -52 z m 0,0"
         id="path830" />
    </clipPath>
    <clipPath
       id="d">
      <path
         d="m 226,701 h 51 v 48.92969 h -51 z m 0,0"
         id="path833" />
    </clipPath>
    <clipPath
       id="e">
      <path
         d="m 289,701 h 44 v 48.92969 h -44 z m 0,0"
         id="path836" />
    </clipPath>
    <clipPath
       id="f">
      <path
         d="m 345,701 h 45 v 48.92969 h -45 z m 0,0"
         id="path839" />
    </clipPath>
    <clipPath
       id="g">
      <path
         d="m 402,701 h 12 v 48.92969 h -12 z m 0,0"
         id="path842" />
    </clipPath>
    <clipPath
       id="h">
      <path
         d="m 422,701 h 41 v 48.92969 h -41 z m 0,0"
         id="path845" />
    </clipPath>
    <clipPath
       id="i">
      <path
         d="m 468,701 h 49 v 48.92969 h -49 z m 0,0"
         id="path848" />
    </clipPath>
    <clipPath
       id="j">
      <path
         d="m 542,700 h 46 v 49.92969 h -46 z m 0,0"
         id="path851" />
    </clipPath>
    <clipPath
       id="k">
      <path
         d="m 599,701 h 41 v 48.92969 h -41 z m 0,0"
         id="path854" />
    </clipPath>
    <clipPath
       id="l">
      <path
         d="m 647,700 h 52 v 49.92969 h -52 z m 0,0"
         id="path857" />
    </clipPath>
    <clipPath
       id="m">
      <path
         d="m 707,701 h 45 v 48.92969 h -45 z m 0,0"
         id="path860" />
    </clipPath>
    <clipPath
       id="n">
      <path
         d="m 763,701 h 41 v 48.92969 h -41 z m 0,0"
         id="path863" />
    </clipPath>
    <clipPath
       id="o">
      <path
         d="m 810,700 h 40.15625 v 49.92969 H 810 Z m 0,0"
         id="path866" />
    </clipPath>
    <clipPath
       id="p">
      <path
         d="M 249,149.92969 H 386 V 280 H 249 Z m 0,0"
         id="path869" />
    </clipPath>
    <clipPath
       id="q">
      <path
         d="M 522,149.92969 H 652 V 287 H 522 Z m 0,0"
         id="path872" />
    </clipPath>
  </defs>
  <path
     fill="#0086ff"
     fill-rule="evenodd"
     d="m 122.80954,326.89178 c -1.10068,0 -2.22756,-0.28279 -3.25336,-0.8893 -11.29129,-6.74972 -18.27347,-15.12548 -20.729404,-24.89286 -0.707586,-2.84277 -0.80867,-6.35904 -1.025807,-13.30224 -0.209653,-7.03252 -0.108569,-11.8697 -0.05616,-15.43804 0.108578,-5.54788 0.108578,-7.11065 -0.763731,-9.22414 -1.029546,-2.26974 -9.097433,-12.29386 -17.977717,-21.82311 -2.358596,-2.52649 -2.205096,-6.48554 0.340686,-8.82971 2.545783,-2.34417 6.529185,-2.19161 8.891518,0.33488 0.730042,0.78139 17.798015,19.16267 20.422425,25.65193 1.83446,4.55812 1.77829,7.96646 1.64726,14.11712 -0.0562,3.40835 -0.15349,8.12646 0.0224,14.84269 0.1535,5.28742 0.26207,9.09391 0.65517,10.6232 1.62854,6.43716 6.66395,12.21945 14.99391,17.20919 2.99129,1.77115 3.93098,5.62229 2.15268,8.57296 -1.10442,1.95349 -3.20094,3.04743 -5.31994,3.04743 z m 86.81119,-109.38721 c -1.44136,0 -2.864,-0.46883 -4.0433,-1.45488 -10.22057,-8.53947 -20.15661,-10.36271 -26.712,-11.5869 -2.22756,-0.41302 -4.17059,-0.75907 -5.78791,-1.32464 -6.86987,-2.3665 -11.90528,-4.68834 -27.83889,-21.59243 -2.38105,-2.52649 -2.25001,-6.48926 0.28454,-8.83342 2.54578,-2.3665 6.53292,-2.23627 8.89151,0.28278 14.65698,15.49386 18.06383,16.68827 22.79973,18.33663 0.73379,0.26047 2.28373,0.54325 3.93474,0.8372 7.39026,1.35441 19.73356,3.62417 32.52238,14.29945 2.63937,2.21394 2.99129,6.17299 0.76373,8.79995 -1.25418,1.48836 -3.03622,2.23626 -4.81453,2.23626 z m 0,0"
     id="path939"
     style="stroke-width:0.955477" />
  <g
     clip-path="url(#p)"
     id="g943"
     transform="matrix(0.95841236,0,0,0.95255207,-197.91043,-9.3070056)">
    <path
       fill="#0086ff"
       fill-rule="evenodd"
       d="m 278.2461,279.34766 h -0.29688 c -1.7539,-0.082 -3.36328,-0.84375 -4.53516,-2.13282 l -22.64062,-24.875 c -2.4375,-2.67968 -2.2461,-6.83593 0.4336,-9.27343 2.67577,-2.4375 6.83593,-2.2461 9.27343,0.43359 l 18.21094,20.01172 90.79296,-82.58594 -18.20703,-20.01172 c -2.4375,-2.67969 -2.24609,-6.83594 0.4336,-9.27344 2.67578,-2.4375 6.83594,-2.24609 9.27344,0.4297 l 22.64062,24.8789 c 2.4414,2.67969 2.2461,6.83594 -0.42969,9.27344 l -100.52734,91.42578 c -1.21875,1.09375 -2.80469,1.69922 -4.42188,1.69922 z m 0,0"
       id="path941" />
  </g>
  <path
     fill="#93eaff"
     fill-rule="evenodd"
     d="m 76.573629,448.66217 c -1.029546,0 -2.044112,-0.23814 -3.017504,-0.75907 -3.032474,-1.67068 -4.170589,-5.44741 -2.48962,-8.48738 l 45.232565,-82.21344 c 2.28372,-4.24555 5.18891,-8.09297 8.67438,-11.43805 l 59.83339,-57.1643 c 2.5121,-2.39626 6.47677,-2.32185 8.89152,0.18605 2.41101,2.493 2.33613,6.43344 -0.18719,8.82971 l -59.83339,57.168 c -2.54578,2.41859 -4.66477,5.22788 -6.31204,8.30879 -0.0224,0.0223 -0.0224,0.0558 -0.0562,0.0781 l -45.27,82.26925 c -1.089447,2.05021 -3.23839,3.2223 -5.469698,3.2223 z m 43.746281,46.94295 c -2.43721,0 -4.77334,-1.42882 -5.79166,-3.79533 -1.36273,-3.18137 0.13104,-6.84646 3.29829,-8.20459 17.80177,-7.55344 31.56397,-5.73019 43.69387,-4.1116 5.91895,0.78139 11.53465,1.54045 16.88454,0.96372 17.43113,-1.82325 48.72552,-11.17761 56.24307,-21.11615 1.38521,-1.82324 3.03249,-5.83809 1.94304,-9.29855 -0.86482,-2.73487 -3.51543,-4.83718 -7.86198,-6.22879 -3.29828,-1.06047 -5.11402,-4.57673 -4.06576,-7.866 1.07072,-3.27812 4.61236,-5.07904 7.91813,-4.03719 10.5051,3.3637 14.49224,9.65948 15.98976,14.3441 2.5645,8.01855 -0.47172,16.12641 -3.85611,20.59522 -5.08783,6.74973 -15.43942,12.81481 -30.79648,18.07988 -11.13781,3.82882 -24.55932,6.95438 -34.18088,7.94414 -6.83992,0.72557 -13.44399,-0.15255 -19.84588,-1.02325 -11.02922,-1.45487 -22.46279,-2.973 -37.08606,3.23347 -0.81615,0.3386 -1.64728,0.52092 -2.48963,0.52092 z m 42.61192,-122.20945 c -1.59486,0 -3.21968,-0.59535 -4.45513,-1.82325 -2.46716,-2.45208 -2.46716,-6.39996 0,-8.83343 l 74.54652,-74.06835 c 2.47091,-2.45209 6.44308,-2.45209 8.89152,0 2.46716,2.45206 2.46716,6.40367 0,8.83342 l -74.54651,74.06836 c -1.21299,1.2279 -2.83032,1.82325 -4.4364,1.82325 z m 29.99157,24.27519 c -1.59486,0 -3.22341,-0.59534 -4.45513,-1.82324 -2.46716,-2.45208 -2.46716,-6.39996 0,-8.82971 l 75.41134,-74.9279 c 2.46715,-2.45207 6.44307,-2.45207 8.88777,0 2.47091,2.45208 2.47091,6.39996 0,8.83344 l -75.40759,74.92417 c -1.21299,1.21674 -2.80784,1.82324 -4.43639,1.82324 z m 5.3686,42.78671 c -1.59111,0 -3.21966,-0.59535 -4.45512,-1.82324 -2.46716,-2.45208 -2.46716,-6.39996 0,-8.83344 l 84.21301,-83.6683 c 2.46715,-2.45208 6.43932,-2.45208 8.88777,0 2.46716,2.45208 2.46716,6.39996 0,8.83343 l -84.20926,83.66831 c -1.23171,1.22789 -2.84154,1.82324 -4.43639,1.82324 z m 0,0"
     id="path945"
     style="stroke-width:0.955477" />
  <path
     fill="#93eaff"
     fill-rule="evenodd"
     d="m 111.67174,533.51 c -1.70343,0 -3.38439,-0.67348 -4.60862,-2.00929 -2.35859,-2.5265 -2.20509,-6.48927 0.33694,-8.83343 L 126.45974,505.14181 63.608859,437.5441 44.575384,455.04725 c -2.545783,2.34416 -6.532922,2.19161 -8.891518,-0.33861 -2.358595,-2.5265 -2.205096,-6.48926 0.33694,-8.83343 l 23.66829,-21.76359 c 1.235461,-1.11626 2.860267,-1.71533 4.511285,-1.67068 1.68096,0.0558 3.25336,0.78138 4.376495,2.00556 l 71.368034,76.76975 c 2.35859,2.5265 2.2051,6.48926 -0.34069,8.83343 l -23.66455,21.76731 c -1.20175,1.14604 -2.72923,1.68929 -4.26793,1.68929 z m 0,0"
     id="path947"
     style="stroke-width:0.955477" />
  <path
     fill="#0086ff"
     fill-rule="evenodd"
     d="m 238.18966,221.28129 c -1.10068,0 -2.22756,-0.28279 -3.25336,-0.89302 -2.9913,-1.76743 -3.93099,-5.61857 -2.15269,-8.56925 6.795,-11.22225 15.22603,-18.1543 25.05351,-20.59521 2.86025,-0.70698 6.39815,-0.80372 13.38782,-1.02325 7.07952,-0.20465 11.9502,-0.10791 15.5405,-0.0521 5.58201,0.10792 7.15441,0.10792 9.28462,-0.76278 2.27997,-1.01952 12.37326,-9.03808 21.96112,-17.85663 2.54204,-2.34417 6.52918,-2.19161 8.88778,0.33488 2.35859,2.5265 2.2051,6.48926 -0.33694,8.83343 -0.7862,0.72558 -19.28805,17.68547 -25.81723,20.29011 -4.58616,1.82324 -8.01547,1.77115 -14.20772,1.63719 -3.42932,-0.0521 -8.1802,-0.14883 -14.94149,0.0223 -5.31995,0.15256 -9.14985,0.26418 -10.69229,0.65488 -6.47678,1.61487 -12.29839,6.6195 -17.31882,14.89851 -1.17929,2.01674 -3.25336,3.08091 -5.39481,3.08091 z m 110.08263,86.25433 c -1.43762,0 -2.86025,-0.46883 -4.03955,-1.45487 -2.64312,-2.21394 -2.9913,-6.17298 -0.76374,-8.79995 8.59576,-10.15435 10.43023,-20.02963 11.66568,-26.54122 0.41557,-2.21393 0.76373,-4.14509 1.32905,-5.75252 2.3848,-6.82414 4.72093,-11.82877 21.73275,-27.6575 2.54578,-2.3665 6.53292,-2.23626 8.89151,0.28279 2.38106,2.52649 2.25003,6.48926 -0.28452,8.82971 -15.59667,14.53013 -16.79468,17.94965 -18.45693,22.6566 -0.26206,0.7293 -0.54659,2.26975 -0.83861,3.90695 -1.36649,7.34879 -3.6502,19.60918 -14.39491,32.31607 -1.28037,1.46232 -3.05867,2.21394 -4.83698,2.21394 z m 0,0"
     id="path949"
     style="stroke-width:0.955477" />
  <g
     clip-path="url(#q)"
     id="g953"
     transform="matrix(0.95841236,0,0,0.95255207,-197.91043,-9.3070056)">
    <path
       fill="#0086ff"
       fill-rule="evenodd"
       d="m 620.0586,286.17969 c -1.77735,0 -3.5547,-0.70313 -4.86329,-2.1289 L 523.7422,183.57811 c -1.17188,-1.28906 -1.77735,-2.98437 -1.69922,-4.72656 0.082,-1.74219 0.84375,-3.35937 2.13281,-4.53515 l 24.88281,-22.63282 c 2.6797,-2.4375 6.83985,-2.24218 9.27735,0.4336 2.4375,2.67578 2.2461,6.83594 -0.4336,9.27344 l -20.01953,18.1914 82.60938,90.76563 20.02343,-18.20313 c 2.67579,-2.4375 6.83594,-2.24219 9.27344,0.4336 2.4375,2.67578 2.2461,6.83593 -0.4336,9.27343 l -24.8828,22.63281 c -1.23438,1.1172 -2.81641,1.69922 -4.41407,1.69922 z m 0,0"
       id="path951" />
  </g>
  <path
     fill="#0086ff"
     fill-rule="evenodd"
     d="m 390.5922,417.46236 c -1.57239,0 -3.16725,-0.59534 -4.40271,-1.76742 -0.76373,-0.7293 -18.76391,-18.25105 -21.69905,-24.58775 -2.07781,-4.45021 -2.17514,-7.866 -2.38106,-14.04271 -0.10857,-3.40835 -0.26206,-8.09297 -0.78619,-14.82037 -0.41557,-5.26136 -0.73379,-9.0604 -1.18305,-10.60086 -1.94303,-6.32554 -7.28168,-11.87342 -15.85498,-16.42781 -3.06992,-1.61858 -4.21552,-5.41764 -2.5982,-8.46505 1.61733,-3.04742 5.44724,-4.18974 8.51715,-2.58231 11.6432,6.17298 19.02223,14.19154 21.96112,23.80636 0.86481,2.80928 1.12314,6.30693 1.70342,13.22782 0.5466,7.01019 0.71133,11.86969 0.84236,15.41943 0.18344,5.54416 0.26207,7.10694 1.23545,9.19064 1.15683,2.21394 9.7189,11.82877 19.05594,20.88918 2.48962,2.41858 2.54204,6.37763 0.10857,8.82971 -1.26541,1.27999 -2.89397,1.93114 -4.51877,1.93114 z m -63.00438,63.04333 c -1.57239,0 -3.14479,-0.57674 -4.34656,-1.74883 -15.40946,-14.73479 -18.89494,-15.75432 -23.7207,-17.16454 -0.73003,-0.20466 -2.30243,-0.41303 -3.98714,-0.65117 -7.44641,-0.98603 -19.89829,-2.62694 -33.21123,-12.65108 -2.77416,-2.08371 -3.29829,-6.00926 -1.20176,-8.74412 2.09652,-2.75719 6.04997,-3.27811 8.80167,-1.19441 10.66981,8.01855 20.65079,9.35435 27.25859,10.21016 2.25003,0.2828 4.19305,0.54325 5.84033,1.04186 6.97095,2.02788 12.11492,4.08927 28.9096,20.15986 2.48963,2.4 2.5645,6.35904 0.1535,8.83344 -1.19801,1.25766 -2.84903,1.90882 -4.49629,1.90882 z m 0,0"
     id="path955"
     style="stroke-width:0.955477" />
  <path
     fill="#0086ff"
     fill-rule="evenodd"
     d="m 335.95521,517.63289 c -1.59486,0 -3.20095,-0.59534 -4.4364,-1.82324 l -22.87835,-22.57847 c -1.1793,-1.17208 -1.85319,-2.75719 -1.85319,-4.40926 0,-1.6707 0.65517,-3.25208 1.83447,-4.42417 l 91.75675,-91.82081 c 2.43721,-2.45207 6.42436,-2.4744 8.89152,-0.0223 l 22.87835,22.58218 c 2.46717,2.41859 2.48962,6.37763 0.0224,8.83343 -2.4372,2.45207 -6.42435,2.4744 -8.89152,0.0223 l -18.42323,-18.17662 -82.88021,82.94273 18.42324,18.17662 c 2.4709,2.41859 2.49337,6.38136 0.0224,8.83344 -1.2467,1.23533 -2.8715,1.86417 -4.46636,1.86417 z m 0,0"
     id="path957"
     style="stroke-width:0.955477" />
</svg>
